<svg xmlns="http://www.w3.org/2000/svg" viewBox="0 0 537.1 404.67"><defs><style>.cls-1{fill:#1e1e1f;}.cls-2{fill:#345c80;}.cls-3{fill:#5085b6;}.cls-4{fill:#5a4130;}.cls-5{fill:#987153;}.cls-6{fill:#76583f;}.cls-7{fill:#d3b177;}.cls-8{fill:#7f664a;}.cls-10,.cls-12,.cls-19,.cls-24,.cls-25,.cls-26,.cls-27,.cls-28,.cls-30,.cls-32,.cls-33,.cls-34,.cls-9{fill:#b64b26;}.cls-9{opacity:0.7;}.cls-10{opacity:0.4;}.cls-11{fill:#f1ead9;}.cls-12{opacity:0.35;}.cls-13{fill:#eee3c8;}.cls-14{fill:#a3846a;}.cls-15{fill:#c6984e;}.cls-16{fill:#f9f7f5;}.cls-17{fill:#bda68e;}.cls-18{fill:#403429;}.cls-19{opacity:0.46;}.cls-20{fill:#eadbba;}.cls-21{fill:#c4745c;}.cls-22{fill:#dfc99b;}.cls-23{fill:#975440;}.cls-24{opacity:0.5;}.cls-25{opacity:0.45;}.cls-26{opacity:0.75;}.cls-27{opacity:0.85;}.cls-28{opacity:0.8;}.cls-29{opacity:0.95;}.cls-31{opacity:0.9;}.cls-32{opacity:0.55;}.cls-33{opacity:0.6;}.cls-34{opacity:0.65;}.cls-35{fill:#cfa866;}.cls-36{fill:#c18d3b;}.cls-37{fill:#d08f76;}.cls-38{fill:#eba990;}.cls-39{fill:#fff4de;}.cls-40{fill:#d7bb84;}.cls-41{fill:#d1ac6c;}.cls-42{fill:#e4d2a6;}.cls-43{fill:none;stroke:#fff4de;stroke-miterlimit:10;stroke-width:14px;}</style></defs><title>putin</title><g id="Layer_2" data-name="Layer 2"><g id="Layer_1-2" data-name="Layer 1"><path class="cls-1" d="M260.76,182.19l-.09,0c0,.2,0,.41.05.62C260.73,182.58,260.74,182.4,260.76,182.19Z"/><path class="cls-2" d="M346.81,341l-5.75-1c-6.8,1-11.47-1.41-10.38-6.71,1.32-6.38-1-9.21-6.08-11.54-.94-.43-1.47-1.73-2.19-2.63-4.82-3.31-7.42,3.88-11.82,2.5l-3.33,3.06-1.84.73c-3.15,3.85-5.18,8.67-12.3,6-4.21-1.58-10.13,3.66-14-2.72-1.65-2.75-4.09-5.13-2.47-8.74l-.15-2.77c-1.68-.32-3.4-1-3.58-2.8-.72-7.38-7.25-8.9-12.16-11-10.44-4.52-12.65-13.22-4.63-21.72.39-.85.78-1.7,1.16-2.56,1.82-12.36,5.46-15,18.91-14,1.1-1.59,4.22-1.25,4-4.13l.45-1.62.15-2.71c-1.78-.93-4.09-1.11-4.85-3.41a24.74,24.74,0,0,1,2.28-1c.27-1.39.54-2.77.82-4.15-.82-2.56,1.33-4.49,1.42-6.86l0-.47c-.9.26-1.31,0-1.13-1-2.14-3.21-3.86-6.44-3.13-9.74A106.35,106.35,0,0,1,261,185.26a6.38,6.38,0,0,1-.25-2.48c0-.21,0-.42-.05-.62l-9.86-3.28c-1.78,3.85,1.13,7,1.8,10.4.58,2.95,1.68,5.76.9,8.91-3.95-1.36-5.49-7.89-11.22-5.12,1.45,2.81,7.3,3.36,4.32,8.44v1.68c0,.36,0,.73.07,1.1,5.6,3.83,4.93,11.23,9.05,15.94.84,1,.19,2.3-.82,3s-2.18.43-3.16-.39c-1.25-1-3.17-1.84-3.65-3.16-1.69-4.67-5.68-7.4-8.56-11.05-2.32-1.58-2.24-5.63-6-5.77-.89,0-1.76.28-2.51-.64C218.39,186.59,201.36,176,186,163.43c-4.16-3.4-9.28-6.16-10.69-12.09-2.8,1.25-3.44,3.88-4.14,6.3-2.23,7.76-6.47,14.21-13.51,18.07-10.86,6-18.8,15.24-27.91,23.2-6.64,9.66-14.53,18.69-16.19,30.91-.63,4.68-.79,9.43-1.17,14.14l.14,23.9-.05,8.53c0,.94,0,1.88-.08,2.82,2.45,6,2,12.13,1.42,18.32l.12,2.81a33.65,33.65,0,0,0,10.39,14.81c2.28,1.94,2.47,5,2.28,7.82a41.14,41.14,0,0,0,5.06,22.89,8.93,8.93,0,0,1,1.27,4.65c-1.41,16.85,9.13,31,10.55,47.18l128.5-.25a22.62,22.62,0,0,0,.72-2.71c1.91-14.88,12.4-20.75,25.27-24.27,5.22-1.43,7,2.46,6.71,5.63-.58,7.14,1.39,14.27-.25,21.35l14.07,0c-1.21-6.78-2.46-13.56-3.6-20.35-.27-1.56,1.06-1.78,2.23-2-2.3-6.27,1.4-12.85-1-19.17-.45-1.21,1.17-1.78,2.33-2.07a4.88,4.88,0,0,1,4.13-2.85c5.43-5.49,12.1-3.3,18.33-2.6,3.28.37,6.22,1.13,8.74-1.64C344.85,346.84,346.45,343.62,346.81,341ZM255.26,236.5a1.28,1.28,0,0,1-.49-.21c-.05,0,.09-.28.14-.44l.51.19Zm-.72-11.1c3.44,2.26,3.79,4.12,2.61,6.22a1.94,1.94,0,0,1-1.75.65C252.75,230.44,255.41,228.3,254.54,225.4ZM225,331.81c1.34-5.42-1-11.5,3.08-16.43C227.16,320.87,230.24,327.1,225,331.81Zm4.92-23.74c-5.92,4.51-9.22,11.09-11.44,18.14-.84,2.7-2.87,5.39,2.14,7.05,3.64,1.21,1.63,4.23-.85,4.74-5,1-8.8,4.34-13.28,6.2-6.88,2.87-13.41-1-19.38-3.35-14.85-5.8-26.43-16.31-36.54-28.51-2.22-2.68-4.87-5-7.35-7.47-4-3.92-6.81-8.35-6.62-14.2.21-6.78,2.16-8.23,8.95-7.46s13.6-.63,20,2.79c1.4.75,4.21.79,4.41-1.86.16-2.27-2.2-3-4-3.24-6.72-.81-13.53.15-20.27-1.53-3.58-.89-6-1.11-3.72-5.62,2.11-4.18-1.87-3.8-4-4.36-3-.81-4.94-1.78-2.72-5.25a5.77,5.77,0,0,0,.91-3.24c-.15-2.29-4.24-4.44-1-6.71,3.42-2.43,7.5-3.91,12-2.74a18.69,18.69,0,0,0,2.7.75c1.45.17,3,0,3.22-1.79.18-1.38-1-1.88-2.15-2.36a17.63,17.63,0,0,0-7.56-1.3c-2.83.09-5.35-.9-6.06-3.74-.62-2.46,2-3.29,3.47-4.73,9.31-9.11,20.43-3.92,30.81-3.83a33.7,33.7,0,0,1,13.64,2.79c3.58,1.68,10.88.68,8.81,9-.37,1.51,3.38,4,5.83,6.78-10.18,3-19-5.15-29.36-.64,12.31,2.88,22.3,10.82,35,8.31,1.72-.33,3.72-2.07,5.12,0,1.85,2.74-2.85,2.53-2.57,5.09,10,.82,8,11.86,14.33,16.23-4.69.32-8-5.49-13.39-1.44,8,4.57,13.29,12,20.5,17.3C234.06,301.19,235.29,304,229.94,308.07Zm17-73.45c-2,.82-2.61-1.3-3.49-2.65-1.45-2.22-2.37-6.64-5.39-5.19-2.85,1.36-1.26,5.35-.16,8.2.65,1.66,2.21,3.21.4,5.89-6.57-3.87-10.6-10.8-17.17-15.32-1.48,3.26.91,4.31,2.14,5.56,7.07,7.22,14.3,14.27,21.38,21.48,6.35,6.48,3,22.57-5.55,25.86-5.11,2-8.53-1.08-10.94-5.22-5.94-10.26-11.69-20.64-17.65-30.89-4.13-7.09-9.86-10.2-18.58-11.53-16.65-2.54-33.35-1.74-50.21-2.6,4.16-9.34,12.28-9.87,20.1-11.06,2.3-.35,5-.67,5.43-3.54.37-2.6-2.34-3.18-3.93-4.45a33.85,33.85,0,0,0-15.73-7.33c-4.54-.75-5.25-3.72-2.38-6.26,3.4-3,6.5-6.65,11.21-8.12,9.22-2.88,15.29,3.58,21.89,7.56,4.55,2.75,8,6.88,14.07,6.89,3.43,0,6.08,2,5.64,6.89,5.54-7.64,6.33-7,12.41-.94,3.11,3.09,8.89,3.61,13.54,5,4,1.22,8.17,2,12.27,3,7.45,1.76,9.69,8.35,12.77,14C249.94,231.59,248.74,233.87,247,234.62Z"/><path class="cls-1" d="M279,225.48a5.31,5.31,0,0,1,.29-1.3c-.19-1.52-.86-3.12.78-4.31.28-.92.56-1.85.83-2.77,0-3.19,1.82-5.29,4.08-7.16.82-.91,1.65-1.82,2.48-2.72.37-1.52.88-2.89,2.87-2.66,2-3.38,5.84-5.58,6.19-10,.37-1.42.75-2.83,1.13-4.25q-.24-2.81-.47-5.63c-4.75-3.1-4.4-10.22.74-15.69-2.46-4.05-5.05,3-7.55-.1l-2.89.24-1.31,1.52c-1.56,7-7.87,5.56-12.55,7,0,4.37-3.09,6.74-6.41,8.2-2.37,1.05-5.3,1.83-6.2-.65a106.35,106.35,0,0,0,15.27,44.79A9.33,9.33,0,0,1,279,225.48Zm2.25-40.2c.23-.77,1.22-1.7,2.19-1.08a3.26,3.26,0,0,1,1.19,2.21c.53,5.14-3.06,8-6.7,11C279,193.35,280,189.29,281.21,185.28Z"/><path class="cls-3" d="M272,397.44a22.62,22.62,0,0,0,.72-2.71c1.91-14.88,12.4-20.75,25.27-24.27,5.22-1.43,7,2.46,6.71,5.63-.58,7.14,1.39,14.27-.25,21.35Z"/><path class="cls-1" d="M432.84,377.83c-2.63,6-7.44,10-12.63,13.5-2.51,1.69-3.36,3.51-3,6.25l-16.61-.17L399,394.49c-.62-2.23-1.81-4.46-.08-6.73,3.86.75,6.23-1.64,8.58-4.09,10.32-.25,10.74-.68,7.08-7.22,0-.42,0-.85-.06-1.28,1.94-.48,2.59,2.68,4.89,1.66,0-3.4-2.48-5.77-3.52-8.7,0-.45.08-.91.09-1.37,2.83-.06,5.19-.76,5.68-4.07l6.81-.16c.06,3.12,5,5.7,2.05,8.76-4.25,4.44.83,2.92,2,3.89Z"/><path class="cls-4" d="M318.5,353.91a4.88,4.88,0,0,1,4.13-2.85c2.59,2.25,4.91,3.65,5.28,8.41.34,4.4-3,9.21.6,13.33,1.56,1.8,2.07,3.08,1.15,5.95s-1.15,8.82,5.77,6.27c2.68,3.77.21,8.71,2.86,12.48l-19.77,0c-1.21-6.78-2.46-13.56-3.6-20.35-.27-1.56,1.06-1.78,2.23-2,2.36,2,2.27-.36,3.1-1.62C324.94,366.48,318.81,360.46,318.5,353.91Z"/><path class="cls-5" d="M399,394.49l1.59,2.92-21.45.08c2.42-4.14.54-8.31.07-12.48,0-1.91,1.07-2.8,2.94-2.83C388.88,384.78,392.07,392.21,399,394.49Z"/><path class="cls-4" d="M379.23,385c.47,4.17,2.35,8.34-.07,12.48l-12.81,0c-.34-2.2,2.85-4,.73-6.41.79-1.39-.22-2.28-.9-3.26,3.17.25,4.73-1.21,4.65-4.41C373.85,382.8,376.46,384.33,379.23,385Z"/><path class="cls-6" d="M338.29,397.5c-2.65-3.77-.18-8.71-2.86-12.48l5.6-2.75a4.66,4.66,0,0,0,2.86,4.1l1.49,1.44,0,0c-1.87,4.66,4.71,5.56,4.27,9.58Z"/><path class="cls-7" d="M367.08,391.12c2.12,2.4-1.07,4.21-.73,6.41l-2.56,0c-.26-5.67-5.58-7.53-8.46-11.22-.54-1.35-1.09-2.69-1.63-4,2.88-1.25,5.8.13,8.69-.17h0c-.06,1.42-.11,2.84-.16,4.26L362,387l.36-.5C364,387.9,364,391.07,367.08,391.12Z"/><path class="cls-4" d="M349.62,397.35c.44-4-6.14-4.92-4.27-9.58l7.2,2.77c2.95,1.64,5.75,3.42,6.83,6.9Z"/><path class="cls-8" d="M359.38,397.44c-1.08-3.48-3.88-5.26-6.83-6.9,1-1.37,2.83-2.21,2.78-4.27,2.88,3.69,8.2,5.55,8.46,11.22Z"/><path class="cls-6" d="M161.08,90.08c0-1.33,0-2.66.07-4l5.95-5.54c1.47,1.46-.51,3.93,1.44,5.41,5.16-5.17,2.66-11.93,3-17.76.15-2.24,2.08-9.78-5.53-9.19q.88-2.68,1.76-5.35l-.06,0c2.16-.63,2.94-2.2,2.94-4.3l.12.14c5.46-5.13,11.2-9.88,18.17-12.87a1.6,1.6,0,0,0,1.12-.43L193.17,35a5.72,5.72,0,0,0,1.16.58c3.47,4,5.3,8.11,1.55,12.92a5.05,5.05,0,0,0-1.26,3.87L192.79,55c-5.24,1.82-9.15,4.67-8.58,11-3.49,2.61-4.59,5.11.36,7.31l-.85,4C179.31,82.17,179.13,90.2,172,93l-2.73,1.52c-1.25-1.71-3.09-1.52-4.87-1.47l-2.85-1.19Z"/><path class="cls-5" d="M194.62,52.41a5.06,5.06,0,0,1,1.26-3.88c3.75-4.81,1.92-9-1.55-12.92,3.07-1.33,6.93-.92,9.1-4.18l2.24-.12c2.94,1.56,5.53-.76,8.33-.75l4.51.11,4,.46c2,2,4.81.77,7.09,1.7l2.74,1.22,3.27,2.32c-2.39.64-5.14-.58-7.24,1.47-7.54-2.55-13.67-.49-18.51,5.71l-4,1.56a2.78,2.78,0,0,0-3.14,2.56C199.42,48.27,198.43,52.74,194.62,52.41Z"/><path class="cls-9" d="M203.43,31.43c-2.17,3.26-6,2.85-9.1,4.18a5.72,5.72,0,0,1-1.16-.58C195.74,31.4,199.76,31.92,203.43,31.43Z"/><path class="cls-9" d="M229.6,32.83c-2.28-.93-5.07.29-7.09-1.7,0-.52.06-1,.1-1.56C225.41,29.64,228.52,29.06,229.6,32.83Z"/><path class="cls-9" d="M214,30.56c-2.8,0-5.39,2.31-8.33.75C208.23,28.64,211.08,29.2,214,30.56Z"/><path class="cls-9" d="M222.61,29.57c0,.52-.07,1-.1,1.56l-4-.46C219.64,29.41,221.15,29.6,222.61,29.57Z"/><path class="cls-5" d="M190.1,36.22a1.6,1.6,0,0,1-1.12.43Z"/><path class="cls-3" d="M199.86,253c-10.18,3-19-5.15-29.36-.64,12.31,2.88,22.3,10.82,35,8.31,1.72-.33,3.72-2.07,5.12,0,1.85,2.74-2.85,2.53-2.57,5.09,10,.82,8,11.86,14.33,16.23-4.69.32-8-5.49-13.39-1.44,8,4.57,13.29,12,20.5,17.3,4.56,3.33,5.79,6.14.44,10.21-5.92,4.51-9.22,11.09-11.44,18.14-.84,2.7-2.87,5.39,2.14,7.05,3.64,1.21,1.63,4.23-.85,4.74-5,1-8.8,4.34-13.28,6.2-6.88,2.87-13.41-1-19.38-3.35-14.85-5.8-26.43-16.31-36.54-28.51-2.22-2.68-4.87-5-7.35-7.47-4-3.92-6.81-8.35-6.62-14.2.21-6.78,2.16-8.23,8.95-7.46s13.6-.63,20,2.79c1.4.75,4.21.79,4.41-1.86.16-2.27-2.2-3-4-3.24-6.72-.81-13.53.15-20.27-1.53-3.58-.89-6-1.11-3.72-5.62,2.11-4.18-1.87-3.8-4-4.36-3-.81-4.94-1.78-2.72-5.25a5.77,5.77,0,0,0,.91-3.24c-.15-2.29-4.24-4.44-1-6.71,3.42-2.43,7.5-3.91,12-2.74a18.69,18.69,0,0,0,2.7.75c1.45.17,3,0,3.22-1.79.18-1.38-1-1.88-2.15-2.36a17.63,17.63,0,0,0-7.56-1.3c-2.83.09-5.35-.9-6.06-3.74-.62-2.46,2-3.29,3.47-4.73,9.31-9.11,20.43-3.92,30.81-3.83a33.7,33.7,0,0,1,13.64,2.79c3.58,1.68,10.88.68,8.81,9C193.66,247.72,197.41,250.25,199.86,253Zm8,19.5c-.58-2.08-2.1-2.37-3.26-3-17.58-9.74-36.84-8.57-55.92-8.55-1.12,0-2.65,0-2.66,1.55,0,2.18,1.87,2.45,3.49,2.55q12.9.8,25.8,1.47c9.55.5,19.1.92,27.79,5.69C204.44,272.94,205.92,274,207.84,272.49ZM175.13,321.4c8.8.39,13.38-4.18,18.27-8.09,1-.84,2.48-2.1,1.48-3.49-1.11-1.57-3-1-4.44-.19a33.59,33.59,0,0,1-18,4.9c-1.89-.06-4,.26-4.15,2.74-.13,2,1.68,2.71,3.18,3.24A20.94,20.94,0,0,0,175.13,321.4Z"/><path class="cls-3" d="M238.31,240.87c-6.57-3.87-10.6-10.8-17.17-15.32-1.48,3.26.91,4.31,2.14,5.56,7.07,7.22,14.3,14.27,21.38,21.48,6.35,6.48,3,22.57-5.55,25.86-5.11,2-8.53-1.08-10.94-5.22-5.94-10.26-11.69-20.64-17.65-30.89-4.13-7.09-9.86-10.2-18.58-11.53-16.65-2.54-33.35-1.74-50.21-2.6,4.16-9.34,12.28-9.87,20.1-11.06,2.3-.35,5-.67,5.43-3.54.37-2.6-2.34-3.18-3.93-4.45a33.85,33.85,0,0,0-15.73-7.33c-4.54-.75-5.25-3.72-2.38-6.26,3.4-3,6.5-6.65,11.21-8.12,9.22-2.88,15.29,3.58,21.89,7.56,4.55,2.75,8,6.88,14.07,6.89,3.43,0,6.08,2,5.64,6.89,5.54-7.64,6.33-7,12.41-.94,3.11,3.09,8.89,3.61,13.54,5,4,1.22,8.17,2,12.27,3,7.45,1.76,9.69,8.35,12.77,14,.92,1.7-.28,4-2.07,4.73-2,.82-2.61-1.3-3.49-2.65-1.45-2.22-2.37-6.64-5.39-5.19-2.85,1.36-1.26,5.35-.16,8.2C238.56,236.64,240.12,238.19,238.31,240.87Zm-27.17-21.53c-.91-2.65-1.71-4.39-5.12-4.35C206.89,217.63,207.7,219.37,211.14,219.34Zm3.36,2.85c.15-.36.5-.78.4-1s-.65-.33-1-.48c-.15.35-.5.78-.4,1S214.14,222,214.5,222.19Z"/><path class="cls-10" d="M173.7,138c-7.38,3.13-13.21,8-18.78,13.89-9.22,9.66-13.78,22.06-21.16,32.73-3,4.38-6.29,8.54-4,14.33,9.11-8,17.05-17.24,27.91-23.2,7-3.86,11.28-10.31,13.51-18.07.7-2.42,1.34-5,4.14-6.3l.12.4a88.87,88.87,0,0,0-.41-9.91A33.28,33.28,0,0,0,173.7,138Z"/><path class="cls-11" d="M252.61,189.28c-.67-3.44-3.58-6.55-1.8-10.4q-.78-4.27-1.55-8.54l-2.64,3.17c-.1,2.57.16,5.22-.36,7.69-1.93,9.13-4.36,9.87-11.49,3.79l-6.27-2.81c-11-6-23.11-10-32.91-18.22l.13-.14a6.49,6.49,0,0,1-4.78-3c-1.91-.3-3.48-1-3.65-3.25l-2.68-1.26c-6.89-2.63-7.92-8.75-9.58-14.49a88.87,88.87,0,0,1,.41,9.91c1.54,5.65,6.51,8.37,10.57,11.69,15.35,12.57,32.38,23.16,45.05,38.83.75.92,1.62.63,2.51.64,2.17-3.93,3.08-9,8.72-9.83,5.73-2.77,7.27,3.76,11.22,5.12C254.29,195,253.19,192.23,252.61,189.28Z"/><path class="cls-12" d="M250.81,178.88q-.78-4.27-1.55-8.54,1.37-1.72,2.75-3.44l-.06,0a.6.6,0,0,0,.51-.6,5.24,5.24,0,0,0,2.94-4.19c3.91-5.59,5.78-12,7.8-18.42l.08-.51L265.1,141c7.38-1.94,11.5,5.26,17.95,6.38,7.93,1.37,14.71,5.65,20.81,10.87l-1.25.94a.53.53,0,0,0-.67,0l-1.78-.2c-2.05-1.64-3.54-1.43-4.22,1.32l-2.2.88c-6.9.91-12.48,5.08-18.74,7.6-1.3.52-1.64,2.12-1.24,3.61-3.09,4.91-6.08,10-13,9.79Z"/><path class="cls-13" d="M256.17,281.65c.39-.85.78-1.7,1.16-2.55,13.86-6.26,19.72-5.61,28.51,3.15l1.86,13.47c-.26,4.2-3,6.87-5.34,9.91-2.82-1.67,1.26-5-2.13-6.05-5.18,5.33-3.36,13.36,3.85,14.63,7.64,1.33,15.52,1.27,23.29,1.81-.06,1.3-.13,2.59-.19,3.89-3.41,1.64-5.6,5.37-9.76,5.72l-1.22-1.39c-.19-1.78.38-4.41-3-2.66l-1.46-.09c-.09-.45-.19-.89-.28-1.34l-.67.39.91,1c-1.57,2-3.86,1.17-5.85,1.55a2,2,0,0,1-.87.05l-1.88,0v0c0-3-2.11-3-4.23-2.84l-2.2-.27-.15-2.77c1.24-4.69-1.1-9.44-4.13-11.09C262.38,300.65,258.33,292,256.17,281.65Z"/><path class="cls-8" d="M341,382.27l-5.6,2.75c-6.92,2.55-6.7-3.4-5.77-6.27s.41-4.15-1.15-5.95c-3.6-4.12-.26-8.93-.6-13.33-.37-4.76-2.69-6.16-5.28-8.41,5.43-5.49,12.1-3.3,18.33-2.6,3.28.37,6.22,1.13,8.74-1.64.61-1.8,3.44-3,1.8-5.35-1.19-1.71-3-2-4.69-.43l-5.75-1q-2.18-4.33-4.34-8.66c4.66-1.53,9.48-1.46,14.3-1.43l14.12,2.89c-1.39,2.48-5.11.09-6.39,2.93,1.18,2.19,3.34,2.17,5.25,2.86,4.12,1.49,1.11,2.79-.29,4.07-3.35.43-4,3.57-5.68,5.68-5.67.72-9.66,5.88-16,5.53-2.44-.14-4,5.08-8.08,3.59A4,4,0,0,0,333,359c4.9,4.89,4,12.18,7.37,17.7-.52,1.52-.68,3,.75,4.15C341.11,381.32,341.07,381.79,341,382.27Z"/><path class="cls-11" d="M296.48,194.59c.37-1.42.75-2.83,1.13-4.25l6.86,1.43-.11,1.65a.82.82,0,0,0,.12.68l7.12,15.77.87,1.58c2.63,2.76,4.66,5.84,5.15,9.74-1.6.82-2.42,1.7-.28,2.88.32,1,.63,2,1,3-2.49.34-2.5,2.27-2.64,4.13s-.8,3.78-3.07,3.89c-2.75.15-2.11-2.4-2.8-3.93-1.23-2.72-.86-6.78-5.45-6.85v0c2.1-3,.24-4.93-2.15-6-2-.88-1.81,1.34-2.16,2.54-4.79-.24-9.83-1.15-12.28,4.71q-2.25,1.43,0,2.93l-.44,1.4c-4.38,1.59-5.51-3-8.3-4.39a5.31,5.31,0,0,1,.29-1.3c1.29-.32,3.26,1.69,3.82-.89.48-2.21-1-3.21-3-3.42.28-.92.56-1.85.83-2.77l6.51-2.77c4.71.84,9.14-1.54,13.81-1.23,2.71.18,5.44,4,7.59,1.7s-1.57-5.29-1.76-8.29c-.13-2.21-1.92-4.26-2.38-6.5C303.68,195.32,300.75,194.05,296.48,194.59Z"/><path class="cls-14" d="M280.66,259.38l.15-2.71c1.2-.32,2.34-.89,2-2.32-.59-2.54-2.9-1.72-4.58-2.09.27-1.39.54-2.77.82-4.15,4.33-.94,2.34-4.48,2.87-7l2.75-.46,4.37-.95c2.17-.65,3.81-.13,4.63,2.14-.77.51-2,.87-2.21,1.55-.53,1.64,1,1.69,2.07,1.87,2.7.45,5.66-.74,8.1,1.3.56,2.55,6.38,3,2.83,7.2-2.49.44-5.14,1.67-7.44,1.19-9-1.85-8.29,4-8.23,9.59-5.95,5.24-4.73-2.15-6.76-3.83Z"/><path class="cls-15" d="M285.84,282.26c-8.79-8.77-14.65-9.42-28.51-3.16,1.82-12.37,5.46-15.06,18.91-14,4.67,2.12,9.13,4.56,12.6,8.47l.05,0q-.17,4-.34,8Z"/><path class="cls-16" d="M296.48,194.59c4.27-.54,7.2.73,8.15,5.42.46,2.24,2.25,4.29,2.38,6.5.19,3,3.92,5.94,1.76,8.29s-4.88-1.52-7.59-1.7c-4.67-.31-9.1,2.07-13.81,1.23.07-2,0-3.81-2.43-4.39.82-.91,1.65-1.82,2.48-2.72,1.9.14,2.76-.86,2.87-2.66C292.26,201.18,296.13,199,296.48,194.59Z"/><path class="cls-13" d="M304.47,191.77l-6.86-1.43c-.16-1.87-.32-3.75-.47-5.62l.87-4.08q4.78-1.6,3.07-6.36c1.89-4.05,5.66-3.33,9.05-3.54,1.88,1.53,2.6.63,2.81-1.33l1.62-1.43c7.7,0,3.29,3.83,2.09,6.64-2.3.62-2.34,2.48-2.38,4.34-.56,1.45-4,1.69-1.79,4.3C311.24,187.45,306.36,188.2,304.47,191.77Z"/><path class="cls-17" d="M256.17,281.65c2.16,10.3,6.21,19,16.24,24.46,3,1.65,5.37,6.4,4.13,11.09-1.68-.32-3.4-1-3.58-2.8-.72-7.38-7.25-8.9-12.16-11C250.36,298.85,248.15,290.15,256.17,281.65Z"/><path class="cls-18" d="M314.56,168l-1.62,1.43a2.68,2.68,0,0,0-2.81,1.33c-3.39.21-7.16-.51-9.05,3.54C298,175.42,298,178,298,180.64l-.87,4.08c-4.75-3.11-4.4-10.23.74-15.7-2.46-4.05-5.05,3-7.55-.09.68-1.51,2.59-2.29,2.51-4.26h0c5.41-1.76,11.51-.58,16.56-3.87l2,.69c2.23,1,5.12.6,6.84,3.81C316.29,165.33,314.06,165.23,314.56,168Z"/><path class="cls-17" d="M276.69,320l2.2.27c.34,2.53,2.15,2.89,4.23,2.84v0c.29.57.58,1.14.86,1.72l1-1.69a2,2,0,0,0,.87-.05c.82,3.19,3.5,3.83,5.95,3.3s1-3.14,1.4-4.8c3.35-1.75,2.78.88,3,2.66l1.22,1.39c4.16-.35,6.35-4.08,9.76-5.72l2.85.18.56,1.56-3.33,3.06-1.84.73c-3.15,3.85-5.18,8.67-12.3,6-4.21-1.58-10.13,3.66-14-2.72C277.51,326,275.07,323.58,276.69,320Z"/><path class="cls-4" d="M336.72,331.37q2.16,4.33,4.34,8.66c-6.8,1-11.47-1.41-10.38-6.71,1.32-6.38-1-9.21-6.08-11.54-.94-.43-1.47-1.73-2.19-2.63l.42-.51c2,.93,3.68-.27,5.46-.78.91,2.09,1.6,4.74,4.51,1.79,2.34-.17,4,.66,4.59,3.1C335.74,325.51,337.6,328.55,336.72,331.37Z"/><path class="cls-18" d="M246.67,204.29c5.6,3.83,4.93,11.23,9.05,15.94.84,1,.19,2.3-.82,3s-2.18.43-3.16-.39c-1.25-1-3.17-1.84-3.65-3.16-1.69-4.67-5.68-7.4-8.56-11C242.76,208.6,242.56,202.94,246.67,204.29Z"/><path class="cls-2" d="M246.67,204.29c-4.11-1.35-3.91,4.31-7.14,4.39-2.32-1.59-2.24-5.64-6-5.78,2.17-3.93,3.08-9,8.72-9.83,1.45,2.81,7.3,3.36,4.32,8.44-.91.55-.87,1.11,0,1.68C246.62,203.55,246.64,203.92,246.67,204.29Z"/><path class="cls-8" d="M260.76,182.19c6.92.17,9.91-4.88,13-9.78,3.36-.48,5.43-4.34,9.28-3.54.23.31.44.63.64,1-2.15,4.18-8,3.59-10.1,7.88,0,4.37-3.09,6.74-6.41,8.2C264.11,187.26,260.1,188.2,260.76,182.19Z"/><path class="cls-13" d="M284.68,240.67l-2.75.45-1.45.13,0-.47-1.13-1c-3.12-4.68-5.34-9.39-.41-14.31,2.79,1.41,3.92,6,8.3,4.39.59,1.4,1.17,2.8,1.75,4.2C285.25,234.75,284.93,237.68,284.68,240.67Z"/><path class="cls-18" d="M318.5,353.91c.31,6.55,6.44,12.57,1.75,19.62-.83,1.26-.74,3.57-3.1,1.62-2.3-6.27,1.4-12.85-1-19.17C315.72,354.77,317.34,354.2,318.5,353.91Z"/><path class="cls-6" d="M288.84,273.6c-3.47-3.91-7.93-6.35-12.6-8.47,1.1-1.59,4.22-1.25,4-4.14l1.83-.26c2,1.68.81,9.07,6.76,3.84Q288.83,269.08,288.84,273.6Z"/><path class="cls-17" d="M111.54,267.56c-.33-7.89-3.47-15.88.86-23.6q.07,12,.14,23.9A2.24,2.24,0,0,1,111.54,267.56Z"/><path class="cls-19" d="M113.83,297.53c-3.74-4.08-4.51-14.11-1.42-18.32C114.86,285.17,114.42,291.34,113.83,297.53Z"/><path class="cls-18" d="M277.89,197.39c1.09-4,2.11-8.1,3.32-12.11.23-.77,1.22-1.7,2.19-1.08a3.26,3.26,0,0,1,1.19,2.21C285.12,191.55,281.53,194.42,277.89,197.39Z"/><path class="cls-2" d="M228.1,315.38c-.94,5.49,2.14,11.72-3.08,16.43C226.36,326.39,224.07,320.31,228.1,315.38Z"/><path class="cls-4" d="M310.59,321.65c-.19-.52-.38-1-.56-1.56l1.45-1.79,1.68-.89,5.31-3.25c2.4.58,4.83,1.11,4.36,4.48l-.42.51C317.59,315.84,315,323,310.59,321.65Z"/><path class="cls-18" d="M273.58,177.71c2.08-4.29,7.95-3.7,10.1-7.88l2.45.85C284.57,177.7,278.26,176.24,273.58,177.71Z"/><path class="cls-4" d="M346.81,341c1.72-1.56,3.5-1.28,4.69.43,1.64,2.35-1.19,3.55-1.8,5.35C344.85,346.84,346.45,343.62,346.81,341Z"/><path class="cls-13" d="M284.94,209.94c2.4.58,2.5,2.43,2.43,4.39l-6.51,2.77C280.82,213.91,282.68,211.81,284.94,209.94Z"/><path class="cls-8" d="M278.24,252.26c1.68.37,4-.45,4.58,2.09.33,1.43-.81,2-2,2.32-1.78-.93-4.09-1.11-4.85-3.41A24.74,24.74,0,0,1,278.24,252.26Z"/><path class="cls-18" d="M254.54,225.4c3.44,2.26,3.79,4.12,2.61,6.22a1.94,1.94,0,0,1-1.75.65C252.75,230.44,255.41,228.3,254.54,225.4Z"/><path class="cls-19" d="M111.54,267.56a2.24,2.24,0,0,0,1,.3c0,2.84,0,5.69-.05,8.53C107.87,273.91,109.33,270.78,111.54,267.56Z"/><path class="cls-13" d="M280,219.87c2.07.21,3.52,1.21,3,3.42-.56,2.58-2.53.57-3.82.89C279.06,222.66,278.39,221.06,280,219.87Z"/><path class="cls-6" d="M292.84,164.67c.08,2-1.83,2.75-2.51,4.26l-2.89.23-1.32-1.23C288.3,166.74,289.94,164.41,292.84,164.67Z"/><path class="cls-8" d="M280.48,241.25l1.45-.13c-.53,2.51,1.46,6-2.87,7C278.24,245.55,280.39,243.62,280.48,241.25Z"/><path class="cls-13" d="M290.29,204.56c-.11,1.8-1,2.8-2.87,2.66C287.79,205.7,288.3,204.33,290.29,204.56Z"/><path class="cls-8" d="M286.12,167.93l1.32,1.23-1.31,1.52-2.45-.85c-.2-.33-.41-.65-.64-1A2.14,2.14,0,0,1,286.12,167.93Z"/><path class="cls-18" d="M255.42,236l-.16.46a1.28,1.28,0,0,1-.49-.21c-.05,0,.09-.28.14-.44Z"/><path class="cls-8" d="M282,260.73l-1.83.26.45-1.61Z"/><path class="cls-20" d="M279.37,239.79l1.13,1C279.6,241,279.19,240.75,279.37,239.79Z"/><path class="cls-4" d="M305.42,325.44l1.84-.73Z"/><path class="cls-18" d="M246.6,203.19c-.86-.57-.9-1.13,0-1.68Z"/><path class="cls-13" d="M205.82,45.11l4-1.56c4,3.23,9.81,4.07,11.15,1.6,2.19-4.06,3-4.5,6.56-3,3.38,1.46,6.78,2.83,9.63,5.37,3.16,2.82,5,1.67,5.3-2.4l.63,0h.62c3,1.65,4.76,5.17,8.56,5.56l0,0a1.38,1.38,0,0,0,1.46,1.47l-.08-.06c.49.49,1,1,1.46,1.46l0,0c0,1.22.18,2.31,1.45,2.86l0-.06c1,3.72,2.18,7.37,5.45,9.85a2.64,2.64,0,0,1,.79.1q1.77,7.74,3.56,15.49c.38,2.89.77,5.77,1.16,8.66-5.4.13-10.65.76-15,4.46l-1.93-4c4.82-1.31,5.25-5,4.34-8.89-.65-2.78-.16-5.19.17-7.93.85-7.12.85-14.67-6-19.65-1-.73-2.25-3.35-3.8-1.36-2.86,3.69-5.58,1.49-7.9,0-4.32-2.84-9-3.42-13.95-3.73-5.93-.38-12.11,1.81-17.8-1.46Z"/><path class="cls-6" d="M424.29,308.84l3.53,3.17c3.58,8.55,9,16.38,11,25.52,3,14.05,3.64,28-6,40.3-.09-.88-.18-1.77-.28-2.65,2.86-4.8,5.06-9.77,4.36-15.55,1.41-6.84-1.68-9.88-8.35-9.91.08-3,.09-6-4.28-5.64,0-1.41-.05-2.83-.07-4.24,1-.62.87-1-.24-1.2a2.32,2.32,0,0,1-1.14,0c-1.36-3.11-.86-8.56-7-5.64-2.8-1.39-2.71-3.44-1.32-5.78,4.13,1,8.38,2.75,11.69-2.13-5.19-1-6.29-7.53-11.7-7.79l-2.73-1.52c-.35-3,1.14-7.13-4.32-6.93l-.5-.27.48.29c.13,2.17-2,2.88-2.86,4.44-5.34-2.59-7.5.25-8.34,5a36.47,36.47,0,0,0-.18,5.44c-3.75.85-4.51-4.76-8.3-3.82l0-3.95c.85-.2,1.83-.26,2-1.37,0-.23-.52-.78-.75-.75-1.12.13-1.18,1.12-1.38,2-5.37-.25-9.26,7.11-15.37,3-4.91-5.38-3.85-14.47-11.36-18.22l4.31-.47c1.6.35,3.81,1.55,4.7.91,4.9-3.53,9.13-.93,13.68.6,1.6.54,5.24-.12,5.25-.36.29-6,7.1-11.39,1.69-17.82,0-.92-.31-2.16.15-2.71,3.26-3.84,6.12-7.45,1.51-12.4-.89-1,.07-3.32,1.86-3.92,2-.67,3,.8,3.42,2.46.61,2.21,1.72,3.76,4.2,3.9a.88.88,0,0,1,.3,1.12l-.15,7.27a12.93,12.93,0,0,0-6.73,3c4.3,2.44,6.61,6.45,9.74,9,3.38,2.77,3.91,4.38,1,6.8-3.09,2.58-1.82,3.79.91,4.71,5.34,1.8,8.31,6.51,12.52,9.65,2.42,1.81,2.47,8,6.45,5.52,2.92-1.83-2-5.45-1.8-8.64ZM433,330.55c-2.5,1.31-3.08,3.4-3.79,5.27-.79,2.11-1.86,5.15.74,6.11,3.41,1.26,3-2.64,3.74-4.43A6.91,6.91,0,0,0,433,330.55Z"/><path class="cls-4" d="M268.85,94.31q-1.38,2.19-2.74,4.38l-2.59,0c-3.42-4.44-5.94-2.28-9.06,1.2h9l1.24,2.47-7,1.74c-2.34-3.36-4.59.4-6.89.08-.11-1.74-.21-3.48-.32-5.22l2-4.12c4.34-3.7,9.59-4.33,15-4.46C268.05,91.66,269.43,92.64,268.85,94.31Z"/><path class="cls-5" d="M262,66.15c-3.27-2.48-4.42-6.13-5.45-9.85,2.18-.21,2.33,2.05,3.59,3,.64,1.48,1.29,3,1.94,4.43Z"/><path class="cls-6" d="M262.05,63.69c-.65-1.48-1.3-2.95-1.94-4.43C262.29,60.06,262.1,61.91,262.05,63.69Z"/><path class="cls-5" d="M256.55,56.36c-1.27-.55-1.49-1.64-1.45-2.86A2.63,2.63,0,0,1,256.55,56.36Z"/><path class="cls-5" d="M255.12,53.53c-.49-.48-1-1-1.46-1.46C254.15,52.56,254.63,53.05,255.12,53.53Z"/><path class="cls-5" d="M253.74,52.13a1.38,1.38,0,0,1-1.46-1.47,2.44,2.44,0,0,1,1.36.11C253.69,51.22,253.72,51.67,253.74,52.13Z"/><path class="cls-14" d="M166.05,59c7.61-.59,5.68,6.95,5.53,9.19-.38,5.83,2.12,12.59-3,17.76-1.95-1.48,0-3.95-1.44-5.41l-5.95,5.54c-.26-.51-.52-1-.77-1.53-.52-8.79,1.76-17.11,4.32-25.37l.15-.18.6,0Z"/><path class="cls-6" d="M164.38,93.09c1.78,0,3.62-.24,4.87,1.47-4.84,4-2,11-5.77,15.4q-1.11-2-2.21-4.08c-.16-1.51-.33-3-.49-4.53C161,98.18,161.26,95,164.38,93.09Z"/><path class="cls-14" d="M161.08,90.08l.45,1.82a8.33,8.33,0,0,1-.65-1.16C160.82,90.57,161,90.3,161.08,90.08Z"/><path class="cls-8" d="M243.75,45.14h-.62l-.63,0c-6,0-8.38-6.88-14.13-7.32,2.1-2.05,4.85-.83,7.24-1.47,5.12.77,7.47,5,10.5,8.4Z"/><path class="cls-5" d="M243.75,45.14l2.36-.37a8.52,8.52,0,0,1,6.2,5.93C248.51,50.31,246.74,46.79,243.75,45.14Z"/><path class="cls-9" d="M166.05,59l-.6,0-.6,0c.13-2.26-.77-5.09,3-5.35Q166.94,56.33,166.05,59Z"/><path class="cls-9" d="M170.69,49.38c0,2.1-.78,3.67-2.94,4.3A3.9,3.9,0,0,1,170.69,49.38Z"/><path class="cls-17" d="M163.48,110c3.8-4.43.93-11.36,5.77-15.4L172,93c1,2.71,5.29,2.21,5.63,5.63-.18.14-.52.32-.5.4a7,7,0,0,0,.49,1l-.06,0,1.45,1.45v-.06c.39,3.59-.7,6.93-1.77,10.26-2.71-.34-5.7-.15-5.51-4.35.09-1.9-1.46-3.6-2.92-1.84-2,2.42-1.47,5.87,0,8.44s3.39,1,5.11-.46c.81-.66,2.13-.7,3.22-1-2.55,4.34-2,7.55,3.26,9.11l-11.32-1.66C166.81,116.82,164.11,114,163.48,110Z"/><path class="cls-13" d="M184.61,156.32c-8.48-3.24-8.08-11.76-10.91-18.36l-.24-3.91c.5-.5,1-1,1.49-1.52,3.22,1.33,4.76,3.81,6.23,7C183.68,145,185.5,150.29,184.61,156.32Z"/><path class="cls-11" d="M169.09,119.89l11.32,1.66c1.25,2.13,1.37,4.51,1.45,6.89-2.62.65-5.19-2.45-7.83-.09H172l-.11-.16a3.07,3.07,0,0,0-.2-1.17Z"/><path class="cls-11" d="M172,128.36H174c.3,1.4.61,2.79.91,4.18-.5.51-1,1-1.49,1.52C171.38,132.57,172,130.39,172,128.36Z"/><path class="cls-11" d="M171.65,127a3.07,3.07,0,0,1,.2,1.17,7.27,7.27,0,0,1-.58-.79S171.51,127.16,171.65,127Z"/><path class="cls-4" d="M407.52,383.67c-2.35,2.45-4.72,4.84-8.58,4.09-1.06-2.51-4.2-3.73-4.31-6.84,3.37-3.17,5.07,1.3,7.56,2,2.37-3.86.05-6.4-1.72-9.06,2.25-.54,4.88.62,6.78-1.51,2.64.38,5.23.9,7.29,2.8,0,.43.06.86.06,1.28C412.84,379.44,406.48,377.93,407.52,383.67Z"/><path class="cls-18" d="M394.63,380.92c.11,3.11,3.25,4.33,4.31,6.84-1.73,2.27-.54,4.5.08,6.73-6.95-2.28-10.14-9.71-16.85-12.31-.61-1.29-1.22-2.57-1.82-3.86l.43-2.19,5.44,1.76a10,10,0,0,0,5.56,1.52Z"/><path class="cls-4" d="M428.57,349.72c6.67,0,9.76,3.07,8.35,9.91-3.21-.21-7-2.07-8.43,2.9l-6.81.15a7.28,7.28,0,0,0-1.39-.2L420,361l.09-1.48c3.34-.31,3.7-3,4.33-5.46h0c2-.1,4-.16,4-2.95C428.45,350.62,428.51,350.17,428.57,349.72Z"/><path class="cls-18" d="M428.49,362.53c1.43-5,5.22-3.11,8.43-2.9.7,5.78-1.5,10.75-4.36,15.55-1.19-1-6.27.55-2-3.89C433.48,368.23,428.55,365.65,428.49,362.53Z"/><path class="cls-18" d="M414.54,375.17c-2.06-1.9-4.65-2.42-7.29-2.8-.42,0-.84-.06-1.26-.12,3.52-.86,5.24-6.07,9.92-4.12,1,2.93,3.54,5.3,3.52,8.7C417.13,377.85,416.48,374.69,414.54,375.17Z"/><path class="cls-4" d="M415.91,368.13c-4.68-1.95-6.4,3.26-9.92,4.12-1.18-.67-2.94-1.83-.89-2.76,4.54-2,6.68-6.15,9.58-9.65l2.6,1.18c0,.48,0,1,0,1.46-.42,1.43-.85,2.85-1.27,4.28C416,367.22,416,367.68,415.91,368.13Z"/><path class="cls-18" d="M407.52,383.67c-1-5.74,5.32-4.23,7.08-7.22C418.26,383,417.84,383.42,407.52,383.67Z"/><path class="cls-18" d="M416,366.76c.42-1.43.85-2.85,1.27-4.28h3a7.28,7.28,0,0,1,1.39.2C421.19,366,418.83,366.7,416,366.76Z"/><path class="cls-21" d="M380.35,378.32c.6,1.29,1.21,2.57,1.82,3.86-1.87,0-2.9.92-2.94,2.83-2.77-.68-5.38-2.21-8.4-1.56-.05-.44-.1-.88-.13-1.32l-4.65-3.1.65-2.36c1.17.06,3.92,1.78,2.95-.7-.81-2.07-.67-5.64-4-6.43l-.51,0c1.71-3.74,3.74-2,5.77-.34C372.88,373.46,377.38,375.09,380.35,378.32Z"/><path class="cls-6" d="M370.7,382.13c0,.44.08.88.13,1.32.08,3.2-1.48,4.66-4.65,4.41-2-1.44-.69-5.1-3.83-5.79h0a1.64,1.64,0,0,0-.17-1.33l-.09-2.26,2.86.86A5.27,5.27,0,0,0,370.7,382.13Z"/><path class="cls-22" d="M362.35,382.07c3.14.69,1.8,4.35,3.83,5.79.68,1,1.69,1.87.9,3.26-3.06-.05-3.06-3.22-4.76-4.66l-.13-.13C362.24,384.91,362.29,383.49,362.35,382.07Z"/><path class="cls-23" d="M341,382.27c0-.48.08-.95.11-1.43a6.1,6.1,0,0,1,1.34-.19,3.07,3.07,0,0,0,2.92,1.46c1.54,2.23,2.87.45,4.26-.22l4,.35c.54,1.34,1.09,2.68,1.63,4,.05,2.06-1.78,2.9-2.78,4.27l-7.2-2.77,0,0-1.49-1.44A4.66,4.66,0,0,1,341,382.27Z"/><path class="cls-4" d="M343.89,386.37l1.49,1.44Z"/><path class="cls-22" d="M353.7,382.24l-4-.35c-.6-3.31-4.4-3.1-5.93-5.4l3.23-2.72c5,2.55,11.08,2.68,15.26,7a1.64,1.64,0,0,1,.17,1.33C359.5,382.37,356.58,381,353.7,382.24Z"/><path class="cls-22" d="M362.32,386.46l-.36.5.23-.63Z"/><path class="cls-11" d="M205.64,47.75c5.69,3.27,11.87,1.08,17.8,1.46,5,.31,9.63.89,13.95,3.73,2.32,1.53,5,3.73,7.9,0,1.55-2,2.8.63,3.8,1.36,6.82,5,6.82,12.53,6,19.65-.33,2.74-.82,5.15-.17,7.93.91,3.92.48,7.58-4.34,8.88l-3.65-.1c-1.73-.46-3.38-.59-4.5,1.21-1.52-.08-3.05-.25-4.23,1l-3,.58c-2.6-.73-4.49,1.17-6.71,1.82-5.91-2.11-10.44,2.28-15.68,3.34-1.86-1.54-2.14-3.48-1.43-5.67l1.41-1.42.29-.46-.25.5-1.42,1.41c-2.82.49-4.74-1.44-7-2.55-1.23-.61-2.9-.92-2.43-2.74.56-2.21,2.47-1.76,4-1.41,2.08.49,4.25,1.93,5.85-1.14-6.13-1.72-11.91-3.08-17.4.86-3.2-.54-6.1,2.16-9.37.84-.61-3.18.21-6.56-1.32-9.61.28-1.34.56-2.68.85-4a1.32,1.32,0,0,0,.45-.87c7.38-3.68,8.48-10.16,7.77-17.45l1.83-2.56c3.81.34,4.8-4.13,8.06-4.73Zm1.27,20.79a7.37,7.37,0,0,0-5.52-6c-3-.75-4.24,3.26-4.21,4.38.11,3.7,4.28,3.06,6.65,4.37C205.59,72.26,206.82,70.94,206.91,68.54Z"/><path class="cls-5" d="M183.72,77.3c1.53,3,.71,6.43,1.32,9.61-3.81,5.94,1.16,10,3.15,14.67,0,1.75,1.32,4-.88,5s-3.42-1-4.65-2.27-1.81-2.75-3.68-2.92v.06L177.54,100l.06,0a5.39,5.39,0,0,0,0-1.39C177.27,95.25,173,95.75,172,93,179.13,90.2,179.31,82.17,183.72,77.3Z"/><path class="cls-14" d="M192.79,55c.71,7.29-.39,13.77-7.77,17.45L184.21,66C183.64,59.63,187.55,56.78,192.79,55Z"/><path class="cls-5" d="M184.21,66l.81,6.44a1.32,1.32,0,0,1-.45.87C179.62,71.08,180.72,68.58,184.21,66Z"/><path class="cls-17" d="M228.37,37.84c5.75.44,8.17,7.3,14.13,7.32-.29,4.07-2.14,5.22-5.3,2.4-2.85-2.54-6.25-3.91-9.63-5.37-3.56-1.54-4.37-1.1-6.56,3-1.34,2.47-7.19,1.63-11.15-1.6C214.7,37.35,220.83,35.29,228.37,37.84Z"/><path class="cls-6" d="M205.64,47.75l-3-.08a2.78,2.78,0,0,1,3.14-2.56Z"/><path class="cls-2" d="M207.84,272.49c-1.92,1.55-3.4.45-4.76-.3-8.69-4.77-18.24-5.19-27.79-5.69q-12.9-.67-25.8-1.47c-1.62-.1-3.51-.37-3.49-2.55,0-1.53,1.54-1.55,2.66-1.55,19.08,0,38.34-1.19,55.92,8.55C205.74,270.12,207.26,270.41,207.84,272.49Z"/><path class="cls-2" d="M175.13,321.4a20.94,20.94,0,0,1-3.62-.89c-1.5-.53-3.31-1.24-3.18-3.24.16-2.48,2.26-2.8,4.15-2.74a33.59,33.59,0,0,0,18-4.9c1.47-.85,3.33-1.38,4.44.19,1,1.39-.44,2.65-1.48,3.49C188.51,317.22,183.93,321.79,175.13,321.4Z"/><path class="cls-2" d="M211.14,219.34c-3.44,0-4.25-1.71-5.12-4.35C209.43,215,210.23,216.69,211.14,219.34Z"/><path class="cls-2" d="M214.5,222.19c-.36-.16-.9-.23-1-.49s.25-.68.4-1c.35.15.9.23,1,.48S214.65,221.83,214.5,222.19Z"/><path class="cls-17" d="M175,132.53c-.3-1.39-.61-2.78-.91-4.18,2.63-2.36,5.2.74,7.82.09,1.78,1.54,1,3.8,1.6,5.67.87,2.67,2.12,4.59,5.3,2.68.19.57.37,1.14.56,1.72l.5-.34-1-1.44c-3-7.17,1.27-11.89,5.94-16.11,1.55-1.4,3.1-5.06,6.23-2.63,2.81,2.17,4.92,5,3.92,9-.48,1.93-3.07,4-1.27,5.67,2.14,2,3.28-1.47,5.05-2.07,1.09-.37,2.43-1.12,3.3-.78,8.8,3.41,16.85,1,24.75-2.9.17,1.69.95,2.76,2.78,2.76l.08.09c0,.47,0,.94,0,1.41,1.16,2.84,5.47,1.46,6.29,4.58,1,3.72,4.28,5.42,6.9,2.88,2.37-2.3,5.4-4.64,5.09-8.68,1.9-3.08-.21-5.87-.62-8.77,3.63,2.61,7.52,3.34,11.73,1.54L265.1,141l-1.82,2.19c-.62-1.78-.76-5.63-3.18-4-8.46,5.73-17.52,2.44-26.31,2.86-.08-2.41,3.64-1.92,3.52-4.43-7.8-1.78-9.92-.65-10.18,5.34-.69,4.4,2.54,3.51,4.93,3.59,10.5.36,20.77-1.81,31.14-2.86-2,6.39-3.89,12.83-7.8,18.42-2.3,1.83-6.14.47-7.75,3.73l-3.82.59c-2.14-2.25-4.82-1.23-7.33-1.2a10.13,10.13,0,0,0-1.23-.18l-2.86-2.81c5.73.89,10.41-2.24,15.57-3.61,5.67-1.5,3.09-2.87,1.42-5.16.61-1.58,4-.73,3.19-3.58-4.07-1.58-7.81.45-11.56,1.12-4.83.87-.23,2.61,0,4-.17,2.57-.65,4.86-4.11,3.55-3.71-1.4-4.53.6-4.55,3.68-6.18-2.68-13.15-1.2-19.44-3.93-2.78-1.22-6.2-.81-9.08-2.72-.59-.39-4.76-2-4.93.52-.3,4.44-2.15,2.22-4.12,1.89a60.6,60.6,0,0,0-7.52-.43l-2.68-1.26c.89-6-.93-11.35-3.43-16.79C179.71,136.34,178.17,133.86,175,132.53Zm79.91,23.22c-1.08.4-1.17,1.34-1.18,2.26,0,.61.14,1.65,1,1.19a3.84,3.84,0,0,0,1.39-2.23C256.25,156.26,255.71,155.71,254.86,155.75Z"/><path class="cls-6" d="M246.62,173.51c-.1,2.57.16,5.22-.36,7.69-1.93,9.13-4.36,9.87-11.49,3.79,2.6-.85,6.78-1.89,3.25-5.05-2-1.79-7.52-3.49-9.52,2.24-11-6-23.11-10-32.9-18.22,5.37-1.36,8.73,5.65,12.66,4.42,6.3-2,13.24,2.59,19-2.68,1.7-1.56,4.51-.71,6.84-.31C235.75,172,239.39,174.37,246.62,173.51Z"/><path class="cls-6" d="M234.08,165.39c-2.33-.4-5.14-1.25-6.84.31-5.74,5.27-12.68.72-19,2.68-3.93,1.23-7.29-5.78-12.66-4.42l.11-.14c-.71-2.41-2.54-3-4.77-3-1.91-.3-3.48-1-3.65-3.25a60.6,60.6,0,0,1,7.52.43c2,.33,3.82,2.55,4.12-1.89.17-2.53,4.34-.91,4.93-.52,2.88,1.91,6.3,1.5,9.08,2.72,6.29,2.73,13.26,1.25,19.44,3.93l0,0,2.86,2.81Z"/><path class="cls-4" d="M234.08,165.39l1.19-.31a10.13,10.13,0,0,1,1.23.18c1.88,3.84,4.51,3.13,7.33,1.2l3.82-.59,4.36,1q-1.38,1.71-2.75,3.44l-2.64,3.17C239.39,174.37,235.75,172,234.08,165.39Z"/><path class="cls-6" d="M228.5,182.18c2-5.73,7.53-4,9.52-2.24,3.53,3.16-.65,4.2-3.25,5.05Z"/><path class="cls-6" d="M190.94,160.83c2.23,0,4.06.58,4.77,3A6.49,6.49,0,0,1,190.94,160.83Z"/><path class="cls-24" d="M105.5,397.47c0-4.89-2.38-9.05-4.26-13.28-7.46-16.83-10.26-35-14.81-52.6-2.42-9.38-2.85-19.4-3.14-29.17-.63-21.42-2.19-42.77,1.17-64.29,3.9-25,11.69-48.54,21.81-71.46,7-15.87,17.13-29.8,27.24-43.87C140.18,113.51,149,107,156.64,99c3.07-3.2,2,2.8,4.14,2.37.16,1.51.33,3,.49,4.53-.56,6.51-1,13.52-5.92,18.11-14.78,13.84-25.26,30.67-34.25,48.41-7.72,15.22-13,31.4-17.86,47.89-5.15,17.4-5.15,35-7.29,52.54-1.94,15.86,2.61,31.58,4,47.39a201.4,201.4,0,0,0,10.23,47.11c3.43,10.13,7.23,20.14,10.87,30.2Z"/><path class="cls-25" d="M121,397.53c-3.64-10.06-7.44-20.07-10.87-30.2a201.4,201.4,0,0,1-10.23-47.11c-1.38-15.81-5.93-31.53-4-47.39,2.14-17.5,2.14-35.14,7.29-52.54,4.88-16.49,10.14-32.67,17.86-47.89,9-17.74,19.47-34.57,34.25-48.41,4.9-4.59,5.36-11.6,5.92-18.11q1.09,2,2.21,4.08c.63,4,3.33,6.86,5.61,9.93l2.56,7.14c-.14.13-.4.33-.38.38a7.27,7.27,0,0,0,.58.79l.11.16c0,2-.58,4.21,1.5,5.69l.24,3.91c-7.38,3.13-13.21,8-18.78,13.89-9.22,9.66-13.78,22.06-21.16,32.73-3,4.38-6.29,8.54-4,14.33-6.64,9.66-14.53,18.69-16.19,30.91-.63,4.68-.79,9.43-1.17,14.14-4.33,7.72-1.19,15.71-.86,23.6-2.21,3.22-3.67,6.35.95,8.83l-.08,2.82c-3.09,4.21-2.32,14.24,1.42,18.32l.12,2.81a10.36,10.36,0,0,0-3.06,10c.9,4.57,2.78,8.81,3.27,13.55a182,182,0,0,0,17.94,61.89c1.92,3.91,6.7,6.53,5.85,11.78Z"/><path class="cls-26" d="M180.33,7H265c.28,1.53,1.09,2.84,2.72,2.68,8.47-.83,15.64,3.94,23.45,5.79,13,3.06,25.41,8.71,38.16,13,4.71,1.59,9.83,2.84,12.62,7,5.69,8.54,14,13.38,22.58,18.21,18.82,10.55,33.41,25.81,47.86,41.67A399.21,399.21,0,0,1,461,162c3.32,5.61,7.36,10.88,10,16.78,4.73,10.48,12.83,18.78,17.82,29,2.26,4.66,2.43,10,5.17,14.53,13.14,21.72,18.47,45.83,20.46,70.71,1.66,20.84-1.69,41.68-1.33,62.55a15.92,15.92,0,0,1-.52,3.47q-3.92,19.15-7.87,38.31l-9.86,0c3.27-9.81,3.95-20.08,5.09-30.23,2.17-19.31,6.07-38.67-.43-57.94a12.87,12.87,0,0,1-.43-4.88c.56-8.06-.92-15.78-3-23.57-3.43-13.06-4.13-26.76-9-39.5-7.19-18.76-14-37.67-21.77-56.19-3.87-9.22-8.47-18.51-14.57-26.35-8.49-10.9-15.1-23-23.46-34A379.19,379.19,0,0,0,394,86.26c-10.4-10.43-22.65-18.78-34.34-27.78C346,48,331.54,39.06,315,35.76c-18.62-3.7-36.39-10.26-55-13.88-12.42-2.41-25-3.2-37.44-4.16-14-1.08-28,2.39-41.79,7.14-18.35,6.31-35.66,14-51.36,25.29C116.48,59.5,106,71.38,95,82.85c-14.77,15.38-23,34.36-32.72,52.73-5.33,10.12-7.5,21.1-11.16,31.64-4.75,13.66-9.61,27.39-11.65,41.75a460,460,0,0,0-4.66,74.6c.77,35.28,5.56,69.72,15.62,103.5,1,3.33,2.1,6.75,1.54,10.37H37.86c-1.74-7.71-3.22-15.5-5.29-23.12-4.31-15.85-6.35-32-7.46-48.35-.77-11.35-2.11-22.64-2.67-34-.85-17.07.64-34.08.7-51.11,0-8.93,3.29-17.95,4.34-27.21,2.17-19.22,6.91-38.08,12.75-56.62,1.33-4.25,4.1-7.64,5-12.24,2.81-14.35,10.46-27.09,16.6-40,6.68-14,16.76-26.58,26.93-39,14.94-18.16,33.32-30.61,53.55-41,10.94-5.62,22.7-9.64,34.11-14.36C178.13,9.7,180.18,9.46,180.33,7Z"/><path class="cls-27" d="M325.6,7c4.29,6.24,12,5.15,17.76,8.39,10.27,5.84,22.43,7.07,32.22,14.7,7.63,5.94,17.72,8.4,25.8,14.16,2.8,2,5.25,3.91,4.65,7.88-.24,1.63-.17,3.75,1.28,4.56,7.7,4.31,10.89,12.6,16.76,18.5a414.61,414.61,0,0,1,28.2,32.15c6.67,8.27,13.54,16.58,19.67,25.13,5.26,7.34,11,15.17,13.11,24.52.75,3.25,1.85,6,6.18,4.29,1-.4,3-.6,3.32-.09,4.94,7.25,15.21,9.54,17.18,19.77,3.62,18.81,11.38,36.54,15.28,55.33.72,3.48-2.32,8.34,3.09,10.47V397.67l-15.5-.25a59.05,59.05,0,0,1,.84-9.06c1.35-8.27,3.71-16.44,4.54-24.68,2.09-20.55,2.2-41.23,1.77-61.91-.16-7.41.44-15.18-.75-22.19-2.61-15.29-2.29-31.27-9.21-45.77-3.91-8.21-3.42-19.32-10.12-25-6.94-5.93-8.73-13.79-11.46-20.67-5.39-13.61-12.3-26.35-19-39.17a225.52,225.52,0,0,0-29.6-43C431.64,94.44,422.24,82.4,411,72.22c-9.59-8.66-19-17.89-32.19-21.66-5.7-1.62-11.93-4.54-15.8-8.8-8.82-9.74-21.77-12.32-31.67-20.2-5.57-4.43-13.47-6.07-20.79-7.83-3.63-.86-8.08-1.69-8.91-6.73Z"/><path class="cls-28" d="M301.62,7c.83,5,5.28,5.87,8.91,6.73,7.32,1.76,15.22,3.4,20.79,7.83,9.9,7.88,22.85,10.46,31.67,20.2,3.87,4.26,10.1,7.18,15.8,8.8,13.24,3.77,22.6,13,32.19,21.66C422.24,82.4,431.64,94.44,441.59,106a225.52,225.52,0,0,1,29.6,43c6.72,12.82,13.63,25.56,19,39.17,2.73,6.88,4.52,14.74,11.46,20.67,6.7,5.71,6.21,16.82,10.12,25,6.92,14.5,6.6,30.48,9.21,45.77,1.19,7,.59,14.78.75,22.19.43,20.68.32,41.36-1.77,61.91-.83,8.24-3.19,16.41-4.54,24.68a59.05,59.05,0,0,0-.84,9.06h-9.86q3.93-19.16,7.87-38.31a15.92,15.92,0,0,0,.52-3.47c-.36-20.87,3-41.71,1.33-62.55-2-24.88-7.32-49-20.46-70.71-2.74-4.52-2.91-9.87-5.17-14.53-5-10.26-13.09-18.56-17.82-29-2.67-5.9-6.71-11.17-10-16.78a399.21,399.21,0,0,0-48.64-66.65c-14.45-15.86-29-31.12-47.86-41.67-8.6-4.83-16.89-9.67-22.58-18.21-2.79-4.18-7.91-5.43-12.62-7-12.75-4.3-25.14-9.95-38.16-13-7.81-1.85-15-6.62-23.45-5.79C266,9.84,265.23,8.53,265,7Z"/><path class="cls-27" d="M123.91,7h28.21c-.31,3.9-3.5,4.56-6.33,5.65a113.43,113.43,0,0,0-18,9.19c-11.6,7-21.92,15.56-32.55,23.83A114.55,114.55,0,0,0,76.12,63.79C63.81,79.07,53,95.57,47,114.56c-2.82,9-9.24,16.18-11.49,25.39-2,8.38-3.11,17-6.08,25.16a132.75,132.75,0,0,0-4.26,14.82c-3.5,14.73-5,29.79-7,44.77-.54,4.17-3.94,7.59-2.68,12.16,3.09,11.29-.33,22.6-.19,33.92.13,10.25-.77,20.6-.81,30.81-.05,12.7,1.21,25.67,5.06,38,2.56,8.23,2.27,16.89,4.78,25.26,3.18,10.62,6.89,21.28,7.82,32.51-6.11.1-12.23-.1-18.3.37-4.84.37-5.8-1.61-5.77-6,.19-25.83.09-51.65.13-77.48q.08-60.56.22-121.13c4.74-4.7,5.41-11.18,6.4-17.07C20,145.9,31.46,118,43.93,90.39c1.43-3.17,2.44-6.48,5-9.19C54.93,74.76,59.22,67,64.62,60A190.39,190.39,0,0,1,89.7,33.9c9.7-8.51,19.78-17.22,31.76-22.91A4.36,4.36,0,0,0,123.91,7Z"/><path class="cls-28" d="M32.23,397.4c-.93-11.23-4.64-21.89-7.82-32.51-2.51-8.37-2.22-17-4.78-25.26-3.85-12.37-5.11-25.34-5.06-38,0-10.21.94-20.56.81-30.81-.14-11.32,3.28-22.63.19-33.92-1.26-4.57,2.14-8,2.68-12.16,1.92-15,3.46-30,7-44.77a132.75,132.75,0,0,1,4.26-14.82c3-8.18,4-16.78,6.08-25.16,2.25-9.21,8.67-16.4,11.49-25.39,6-19,16.77-35.49,29.08-50.77A114.55,114.55,0,0,1,95.2,45.67c10.63-8.27,21-16.8,32.55-23.83a113.43,113.43,0,0,1,18-9.19c2.83-1.09,6-1.75,6.33-5.65h28.21c-.15,2.46-2.2,2.7-3.91,3.4-11.41,4.72-23.17,8.74-34.11,14.36-20.23,10.39-38.61,22.84-53.55,41-10.17,12.38-20.25,24.91-26.93,39-6.14,12.93-13.79,25.67-16.6,40-.9,4.6-3.67,8-5,12.24-5.84,18.54-10.58,37.4-12.75,56.62-1.05,9.26-4.31,18.28-4.34,27.21-.06,17-1.55,34-.7,51.11.56,11.4,1.9,22.69,2.67,34,1.11,16.35,3.15,32.5,7.46,48.35,2.07,7.62,3.55,15.41,5.29,23.12Z"/><g class="cls-29"><path class="cls-30" d="M530.1,187.53a6,6,0,0,1-5.68-5.37c-1.19-9.64-8-17.49-8.51-27.32a4.44,4.44,0,0,0-.93-2.6c-9.84-10.71-13.26-25.26-21.74-36.69-9.56-12.87-19.78-25.25-29.91-37.69-3.41-4.19-9-5.69-12.71-9.85-8-9-12.1-22.25-26.15-24.93-13-17.22-33-22.84-51.37-31.26-2.37-1.09-5.08-1.45-5.19-4.82h33.85c1.52,5.9,7.67,6.27,11.38,9.55,11.55,10.2,25.28,16,39.9,20.16a41.51,41.51,0,0,1,7.78,3C471,45,480.5,51.39,490.05,57.49c8,5.11,16.51,10,22.77,18.26,3.92,5.15,8.87,11.8,17.28,11.64Z"/><path class="cls-30" d="M66.09,7h35.26a6.05,6.05,0,0,1-1.82,3.64C92,19,82.36,24.88,73.63,31.65,57.42,44.21,47.53,61.38,37.9,78.28c-12.66,22.2-23,45.82-25.57,71.9-.21,2.16-1.72,3.22-3.8,3.48V84.54c1.93-.19,2.49-1.81,3.45-3.12C17.18,74.35,18.1,65,23.23,58.26,35.55,42.19,46.32,24.66,62.89,12.2,64.57,10.94,66,9.34,66.09,7Z"/></g><g class="cls-31"><path class="cls-30" d="M325.6,7h42.31c.11,3.37,2.82,3.73,5.19,4.82,18.33,8.42,38.39,14,51.37,31.26C438.52,45.76,442.6,59,450.62,68c3.71,4.16,9.3,5.66,12.71,9.85,10.13,12.44,20.35,24.82,29.91,37.69,8.48,11.43,11.9,26,21.74,36.69a4.44,4.44,0,0,1,.93,2.6c.48,9.83,7.32,17.68,8.51,27.32a6,6,0,0,0,5.68,5.37v59.23c-5.41-2.13-2.37-7-3.09-10.47-3.9-18.79-11.66-36.52-15.28-55.33-2-10.23-12.24-12.52-17.18-19.77-.34-.51-2.31-.31-3.32.09-4.33,1.71-5.43-1-6.18-4.29-2.14-9.35-7.85-17.18-13.11-24.52-6.13-8.55-13-16.86-19.67-25.13a414.61,414.61,0,0,0-28.2-32.15C418.2,69.29,415,61,407.31,56.69c-1.45-.81-1.52-2.93-1.28-4.56.6-4-1.85-5.89-4.65-7.88-8.08-5.76-18.17-8.22-25.8-14.16-9.79-7.63-21.95-8.86-32.22-14.7C337.65,12.15,329.89,13.24,325.6,7Z"/><path class="cls-30" d="M8.53,153.66c2.08-.26,3.59-1.32,3.8-3.48,2.57-26.08,12.91-49.7,25.57-71.9,9.63-16.9,19.52-34.07,35.73-46.63C82.36,24.88,92,19,99.53,10.64A6.05,6.05,0,0,0,101.35,7h22.56a4.36,4.36,0,0,1-2.45,4c-12,5.69-22.06,14.4-31.76,22.91A190.39,190.39,0,0,0,64.62,60c-5.4,7-9.69,14.76-15.72,21.2-2.53,2.71-3.54,6-5,9.19-12.47,27.6-24,55.51-29,85.68-1,5.89-1.66,12.37-6.4,17.07Q8.51,173.4,8.53,153.66Z"/></g><path class="cls-30" d="M530.1,87.39c-8.41.16-13.36-6.49-17.28-11.64C506.56,67.53,498,62.6,490.05,57.49,480.5,51.39,471,45,460.82,39.74a41.51,41.51,0,0,0-7.78-3c-14.62-4.12-28.35-10-39.9-20.16-3.71-3.28-9.86-3.65-11.38-9.55,41.13,0,82.27.08,123.41-.12,4.21,0,5.1.84,5.06,5.06C530,37.09,530.1,62.24,530.1,87.39Z"/><path class="cls-30" d="M66.09,7c-.07,2.34-1.52,3.94-3.2,5.2-16.57,12.46-27.34,30-39.66,46.06C18.1,65,17.18,74.35,12,81.42c-1,1.31-1.52,2.93-3.45,3.12L8.26,7Z"/><path class="cls-30" d="M8.26,7l.27,77.54v69.12q0,19.74,0,39.48-.12,60.57-.22,121.13c0,25.83.06,51.65-.13,77.48,0,4.41.93,6.39,5.77,6,6.07-.47,12.19-.27,18.3-.37l5.63,0H77.33l11.29,0H105.5l15.54.06,16.91,0,5.55.13,128.5-.25h32.45l14.07,0,19.77,0,11.33-.15,9.76.09,4.41.05,2.56,0,12.81,0,21.45-.08,16.61.17,25.51-.09,14.07,0,8.46,0,9.88,0,19.74.05,9.86,0h9.86l15.5.25c-1.56,2.95-4.28,1.32-6.34,1.33q-145.62.15-291.25.08-110.35,0-220.72.12c-4.21,0-5.06-.85-5-5.05Q7,203,7,11.94C7,10.49,4.75,7.78,8.26,7Z"/><path class="cls-9" d="M494.52,397.05,474.78,397c.37-8.76,4.75-16.67,5.55-25.29,2.17-23.11,6.1-46.24,2.67-69.47-1.28-8.62-.55-17.26-2.1-25.84-2-10.95-6.86-21-9.49-31.58-4.47-18.05-11.59-35-19.32-51.73-4.39-9.49-10.4-18.29-16.21-27.05-6.84-10.32-14.45-20.12-21.38-30.38-9.24-13.68-21.08-25.06-32.33-36.9-9.76-10.28-21.92-17.9-32.73-27-9.27-7.77-19.42-13-30.2-17.49a397.8,397.8,0,0,0-67.15-21.78c-6.47-1.45-13.74-4.59-20.11,1.13l-2.74-1.22c-1.08-3.76-4.19-3.19-7-3.25-1.45,0-3-.17-4.09,1.09l-4.52-.11c-2.92-1.36-5.77-1.92-8.32.76l-2.25.11c-3.66.5-7.69,0-10.26,3.6l-3.07,1.19-1.11.43c-7,3-12.72,7.74-18.18,12.87-3.86-4.13-7.22-5.15-12.39-.88-6.81,5.63-14.3,10.51-21.47,15.75-17.48,12.79-31.1,29-43,46.7A201.39,201.39,0,0,0,73.4,149.22c-4.87,12.35-11.19,24.37-14.2,37.16-4.2,17.84-10.84,35.41-10,54.18.45,10.38-4.84,20.16-3.1,30.55,1.16,7,1.25,13.95,1.35,21,.39,29.32,4.36,58,13.28,86.11,1.94,6.09,5.46,12,5,18.83H51.59c.56-3.61-.55-7-1.54-10.37-10-33.77-14.85-68.21-15.62-103.5a460,460,0,0,1,4.66-74.6c2-14.35,6.91-28.09,11.65-41.74,3.67-10.55,5.83-21.53,11.16-31.64,9.68-18.38,17.95-37.35,32.72-52.74,11-11.46,21.5-23.35,34.46-32.7,15.69-11.32,33-19,51.35-25.29,13.8-4.74,27.82-8.21,41.79-7.13,12.4,1,25,1.74,37.44,4.16,18.6,3.62,36.37,10.17,55,13.88,16.53,3.29,31,12.26,44.61,22.72,11.69,9,23.94,17.35,34.34,27.77A378.06,378.06,0,0,1,427,124.4c8.36,11,15,23.08,23.46,34,6.1,7.84,10.7,17.13,14.57,26.36,7.76,18.51,14.59,37.43,21.77,56.19,4.89,12.74,5.59,26.44,9,39.5,2,7.78,3.52,15.5,3,23.57a12.84,12.84,0,0,0,.43,4.87c6.5,19.28,2.6,38.64.43,57.94C498.47,377,497.79,387.24,494.52,397.05Z"/><path class="cls-32" d="M456.8,397.46l-14.07,0c-.41-4.34-.22-8.44,3.68-11.45,1.36-1,1.74-2.67,1.87-4.4,1.16-15.38,4-30.66,2.82-46.17-.79-10.24,2.34-20.34.21-30.72-1.58-7.73-3.28-15.57-4.14-23.37a135,135,0,0,0-8.75-33.78c-11.35-29.31-26.16-56.88-46.8-81-18.42-21.51-36.89-42.71-61.61-57.68C310,96.81,289.74,85.69,266.32,81.74q-1.79-7.74-3.56-15.49c3.68,3.1,6.48-2.16,10.23-.94,22.1,7.24,43.06,16.53,62.88,29,22.53,14.22,41.42,32.3,57.79,52.66,20.49,25.49,39.65,52.18,50.3,83.8,1.26,3.74,3.5,7.17,5.48,10.63,4.07,7.1,6.91,14.93,9.52,22.44,6.08,17.52,6.73,36.22,7.59,54.66,1.1,23.5-.87,46.71-8.07,69.29C457.5,390.9,457.34,394.24,456.8,397.46Z"/><path class="cls-24" d="M266.32,81.74c23.42,4,43.64,15.07,63.69,27.2,24.72,15,43.19,36.17,61.61,57.68,20.64,24.1,35.45,51.67,46.8,81a135,135,0,0,1,8.75,33.78c.86,7.8,2.56,15.64,4.14,23.37,2.13,10.38-1,20.48-.21,30.72,1.19,15.51-1.66,30.79-2.82,46.17-.13,1.73-.51,3.36-1.87,4.4-3.9,3-4.09,7.11-3.68,11.45l-25.51.09c-.37-2.74.48-4.56,3-6.25,5.19-3.49,10-7.53,12.63-13.5,9.6-12.3,9-26.25,6-40.3-1.94-9.14-7.4-17-11-25.52,5.15,1.14,6.78-.67,6.42-6.09-1.58-23.74-10.59-45.82-15-68.92-3-15.86-12.3-29.17-21.2-42.18-16.26-23.77-35-45.44-58.85-62.09-8-5.6-15-13-24.17-16.59-10.39-4.12-19.42-11.66-30.7-13.22-6.6-.91-9-8.18-15.44-8.61.58-1.67-.8-2.65-1.37-3.91C267.09,87.51,266.7,84.63,266.32,81.74Z"/><path class="cls-33" d="M456.8,397.46c.54-3.22.7-6.56,1.68-9.64,7.2-22.58,9.17-45.79,8.07-69.29-.86-18.44-1.51-37.14-7.59-54.66-2.61-7.51-5.45-15.34-9.52-22.44-2-3.46-4.22-6.89-5.48-10.63-10.65-31.62-29.81-58.31-50.3-83.8-16.37-20.36-35.26-38.44-57.79-52.66-19.82-12.5-40.78-21.79-62.88-29-3.75-1.22-6.55,4-10.23.94a2.64,2.64,0,0,0-.79-.1l.08-2.46c.05-1.78.24-3.63-1.95-4.43-1.25-.91-1.4-3.17-3.58-3l0,.06a2.63,2.63,0,0,0-1.45-2.86l0,0-1.46-1.46.08.06c0-.46-.05-.91-.1-1.36,1.18-1.54,2.8-1.15,4.46-1.24,8.17-.46,15.34,3.19,22.91,5.24a275.12,275.12,0,0,1,43.91,16,190.64,190.64,0,0,1,58.86,42.09c3.8,4,7.93,7.79,11.48,12.1,9.19,11.19,17.67,22.88,26,34.74,13.47,19.22,24.6,39.68,34.64,60.86,7.81,16.51,10.36,34.41,14.78,51.77,5,19.47,3.66,39.73,4.31,59.67.49,14.95-3.1,29.54-6,44.14-1.4,7.07-2.47,14.2-3.69,21.3Z"/><path class="cls-32" d="M105.5,397.47H88.62c-3.27-18.44-12-35.23-14.84-54.09C71.5,328.24,69.13,313.24,69,298c-.14-17.25-.9-34.48,1.12-51.75,1.66-14.18,3.69-28.3,7.7-41.88,5.44-18.44,11.61-36.61,20.32-54,13.24-26.49,29.93-49.82,53-68.43,6.58-5.3,6.6-5.28,9.2,2.67.25.51.51,1,.77,1.53,0,1.33-.05,2.66-.07,4-.07.22-.26.49-.2.66a8.33,8.33,0,0,0,.65,1.16l2.85,1.19c-3.12,1.92-3.36,5.09-3.6,8.26-2.12.43-1.07-5.57-4.14-2.37-7.63,8-16.46,14.53-23.13,23.82-10.11,14.07-20.24,28-27.24,43.87-10.12,22.92-17.91,46.47-21.81,71.46-3.36,21.52-1.8,42.87-1.17,64.29.29,9.77.72,19.79,3.14,29.17,4.55,17.62,7.35,35.77,14.81,52.6C103.12,388.42,105.53,392.58,105.5,397.47Z"/><path class="cls-34" d="M465.26,397.42c1.22-7.1,2.29-14.23,3.69-21.3,2.91-14.6,6.5-29.19,6-44.14-.65-19.94.64-40.2-4.31-59.67-4.42-17.36-7-35.26-14.78-51.77-10-21.18-21.17-41.64-34.64-60.86-8.3-11.86-16.78-23.55-26-34.74-3.55-4.31-7.68-8.06-11.48-12.1a190.64,190.64,0,0,0-58.86-42.09,275.12,275.12,0,0,0-43.91-16c-7.57-2.05-14.74-5.7-22.91-5.24-1.66.09-3.28-.3-4.46,1.24a2.44,2.44,0,0,0-1.36-.11l0,0a8.55,8.55,0,0,0-6.19-5.94c-3-3.38-5.39-7.62-10.51-8.39l-3.27-2.32c6.37-5.73,13.64-2.58,20.1-1.13A397.62,397.62,0,0,1,319.6,54.7c10.78,4.53,20.93,9.72,30.19,17.49,10.81,9.06,23,16.69,32.74,27,11.25,11.84,23.09,23.23,32.32,36.9,6.94,10.26,14.54,20.07,21.39,30.39,5.81,8.76,11.82,17.56,16.21,27.05,7.72,16.7,14.85,33.68,19.32,51.72,2.63,10.63,7.51,20.63,9.48,31.59,1.55,8.58.83,17.22,2.11,25.83,3.43,23.23-.51,46.37-2.67,69.48-.8,8.61-5.18,16.53-5.55,25.29Z"/><path class="cls-34" d="M66.06,397.44c.47-6.82-3.06-12.74-5-18.83-8.92-28.08-12.89-56.8-13.28-86.12-.1-7-.19-14-1.36-21C44.7,261.13,50,251.35,49.53,241c-.81-18.77,5.83-36.33,10-54.17,3-12.79,9.33-24.81,14.2-37.16a201.09,201.09,0,0,1,20.18-38.54c11.9-17.68,25.52-33.91,43-46.7,7.17-5.24,14.66-10.12,21.47-15.75,5.17-4.27,8.53-3.25,12.39.88l-.12-.14a3.9,3.9,0,0,0-2.94,4.3l.06,0c-3.73.26-2.83,3.09-3,5.34l-.15.19q-17.83,13-35.67,26a6.14,6.14,0,0,0-1.25,1.68c-10.89,16.27-23.53,31.22-33.12,48.55a257.4,257.4,0,0,0-21,50c-6.48,21.44-12.46,43.33-13.5,66.2-1,21.43-2.09,42.85-.92,64.27.37,6.68,2.82,13.22,4,19.88,2.77,15,3.1,30.54,9.82,44.84,2.42,5.12,4.3,10.89,4.27,16.88Z"/><path class="cls-33" d="M77.33,397.44c0-6-1.85-11.76-4.27-16.88-6.72-14.3-7-29.8-9.82-44.84-1.22-6.66-3.67-13.2-4-19.88-1.17-21.42-.06-42.84.92-64.27,1-22.87,7-44.76,13.5-66.2a257.4,257.4,0,0,1,21-50c9.59-17.33,22.23-32.28,33.12-48.55A6.14,6.14,0,0,1,129,85.15q17.82-13,35.67-26c-2.56,8.26-4.84,16.58-4.32,25.37-2.6-8-2.62-8-9.2-2.67-23.1,18.61-39.79,41.94-53,68.43-8.71,17.43-14.88,35.6-20.32,54-4,13.58-6,27.7-7.7,41.88-2,17.27-1.26,34.5-1.12,51.75.12,15.25,2.49,30.25,4.77,45.38,2.84,18.86,11.57,35.65,14.84,54.09Z"/><path class="cls-10" d="M138,397.56c.85-5.25-3.93-7.87-5.85-11.78a182,182,0,0,1-17.94-61.89c-.49-4.74-2.37-9-3.27-13.55a10.36,10.36,0,0,1,3.06-10,33.65,33.65,0,0,0,10.39,14.81c2.28,1.94,2.47,5,2.28,7.82a41.14,41.14,0,0,0,5.06,22.89,8.93,8.93,0,0,1,1.27,4.65c-1.41,16.85,9.13,31,10.55,47.18Z"/><path class="cls-25" d="M268.85,94.31c6.45.43,8.84,7.7,15.44,8.61,11.28,1.56,20.31,9.1,30.7,13.22,9.16,3.63,16.14,11,24.17,16.59C363,149.38,381.75,171.05,398,194.82c8.9,13,18.15,26.32,21.2,42.18,4.44,23.1,13.45,45.18,15,68.92.36,5.42-1.27,7.23-6.42,6.09l-3.53-3.17c.53-5.24-5-7.75-5.61-12.49,2.51-1.76,3.86-3,2.13-7-2.76-6.33-3.68-13.42-5.91-20.11-6-17.94-12.28-35.53-22.36-51.81-4.07-6.58-10.15-11.65-13.16-18.63-4.69-10.88-14.33-17.31-21.12-26.71-2.56,3.28-1.16,6.23-1.77,8.87-3.64-1.12-4.52-5-7.06-7.13-6.22-5.24-11.89-11.6-21-11.74-4.05-3.79-9.44-2-14.07-3.43,4.18-4.38,8.92-1.78,13.56-1.17,6.44.85,12,4.27,18.7,7.57a11.31,11.31,0,0,0-5.3-7.45C326.78,148,313,137.12,296.78,130.11c-5.78-2.5-11.78-7-17.44-6.65-7.09.44-6.4-3.38-7.28-7.21-.6-2.57,1.11-5.78-2.13-7.62l-2.59-5.76-1.23-4.18Q267.47,96.5,268.85,94.31Z"/><path class="cls-10" d="M265.1,141,269,122.7c2.1-4.57,1.45-9.32.93-14.07,3.24,1.84,1.53,5.05,2.13,7.62.88,3.83.19,7.65,7.28,7.21,5.66-.34,11.66,4.15,17.44,6.65,16.19,7,30,17.9,44.55,27.55a11.31,11.31,0,0,1,5.3,7.45c-6.69-3.3-12.26-6.72-18.7-7.57-4.64-.61-9.38-3.21-13.56,1.17l-2.81,1.08-1.72.23c-1.26-3.09-4.17-.53-6-1.75-6.1-5.22-12.88-9.5-20.81-10.87C276.6,146.28,272.48,139.08,265.1,141Z"/><path class="cls-13" d="M286.12,167.93a2.14,2.14,0,0,0-3.08.94c-3.85-.8-5.92,3.06-9.28,3.54-.4-1.5-.06-3.1,1.24-3.62,6.26-2.52,11.84-6.69,18.74-7.6l-.9,3.48h0C289.94,164.41,288.3,166.74,286.12,167.93Z"/><path class="cls-6" d="M292.84,164.67l.9-3.48,2.2-.88c1.95,1.3,3-.29,4.22-1.32l1.78.2c.13.37.25.75.38,1.12l.29-1.1,1.25-.94c1.81,1.22,4.72-1.34,6,1.75-.15.26-.3.52-.44.78C304.35,164.09,298.25,162.91,292.84,164.67Z"/><path class="cls-6" d="M252,166.9l-4.36-1c1.61-3.26,5.45-1.9,7.75-3.73a5.24,5.24,0,0,1-2.94,4.19l-1.06-.4.55,1Z"/><path class="cls-13" d="M300.16,159c-1.22,1-2.27,2.62-4.22,1.32C296.62,157.56,298.11,157.35,300.16,159Z"/><path class="cls-13" d="M302.61,159.21l-.29,1.1c-.13-.37-.25-.75-.38-1.12A.53.53,0,0,1,302.61,159.21Z"/><path class="cls-4" d="M252,166.93l-.55-1,1.06.4A.6.6,0,0,1,252,166.93Z"/><path class="cls-11" d="M307.37,316c-7.77-.54-15.65-.48-23.29-1.81-7.21-1.27-9-9.3-3.85-14.63,3.39,1.05-.69,4.38,2.13,6.05,2.31-3,5.08-5.71,5.34-9.91,6.84-1.83,13.27-4.33,17.47-10.55a10.52,10.52,0,0,0,7.77-3.1c6.18-3.1,12.36-6.18,19.63-5.06,2.72,4,5.31,8.06,8.22,11.89,1.09,1.42,2.1,2.63,1.21,4.31-1.05,2-2.79,1.12-4.3.58-6.17-2.21-11.24-1.08-15.09,4.56-1.73,2.54-4,3.43-7.28,2.29-2.14-.75-6.37-.17-5.72,1.93,1.6,5.19-2.52,8.82-2.23,13.38Z"/><path class="cls-2" d="M305.17,285.17c-4.2,6.22-10.63,8.72-17.47,10.55l-1.86-13.47,2.71-.59,5.87.52Z"/><path class="cls-22" d="M318.47,314.16l-5.32,3.25-1.67.89L310,320.09l-2.85-.18c.06-1.3.13-2.59.19-3.89V316c5.84.55,7.63-5.84,12.35-7.2Z"/><path class="cls-20" d="M293.23,321.58c-.41,1.66.94,4.3-1.4,4.8s-5.13-.11-5.95-3.3c2-.38,4.28.42,5.85-1.55l0,0Z"/><path class="cls-20" d="M283.12,323.08c-2.08.05-3.89-.31-4.23-2.84C281,320.12,283.11,320.05,283.12,323.08Z"/><path class="cls-20" d="M291.73,321.53l-.91-1,.67-.39c.09.45.19.89.28,1.34Z"/><path class="cls-20" d="M285,323.13l-1,1.69c-.28-.58-.57-1.15-.86-1.72Z"/><path class="cls-22" d="M297.42,325.63l-1.22-1.39Z"/><path class="cls-14" d="M347,373.77l-3.22,2.72c-.42,0-.84,0-1.26,0-.74-1.06-1.37-.29-2,.12l-.07.12c-3.33-5.52-2.47-12.81-7.37-17.7a4,4,0,0,1,.93-1.5c4.06,1.49,5.64-3.73,8.08-3.59,6.34.35,10.33-4.81,16-5.54-.11,1.83-1.39,3.78,2.09,4.42,2.74.5,5.23,2.41,7.84,3.7-3.17,2.74-6.17,2.62-9.07-.45-1.5-1.58-3.2-2.88-5.36-1.09C347.55,359.88,342.53,365.18,347,373.77Z"/><path class="cls-14" d="M363.71,342.69c1.4-1.28,4.41-2.58.29-4.07-1.91-.69-4.07-.67-5.25-2.86,1.28-2.84,5-.45,6.39-2.93,3.77-.27,7.68.66,11.22-1.42,4.61,1.2,1.73,2.46,0,3.54-3,1.85-5.1,3.95-2.71,7.68l1.2,2.83c-1.12,4.59,5.73,7.12,3.19,12.16l-5.76-2.15c-.42-4.09-1.41-7.69-6.47-8.12C362.39,347.06,363.38,344.7,363.71,342.69Z"/><path class="cls-4" d="M376.36,331.41c-3.54,2.08-7.45,1.15-11.22,1.42L351,329.94l.06-4.57,2.26-.12c2.54-.19,4.89,2.59,7.56.52,3.41-2.45,4.12,5.68,7.08,2.16,3.9-4.64,7.58-.71,11.33-.69-.05.89-.11,1.78-.16,2.68C378,330.07,376.8,330,376.36,331.41Z"/><path class="cls-5" d="M363.71,342.69c-.33,2-1.32,4.37,2.08,4.66,5.06.43,6,4,6.47,8.12-1.12,1.65-2.74,1.19-4.3,1-2.61-1.29-5.1-3.2-7.84-3.7-3.48-.64-2.2-2.59-2.09-4.42C359.71,346.26,360.36,343.12,363.71,342.69Z"/><path class="cls-6" d="M351.08,325.37l-.06,4.57c-4.82,0-9.64-.1-14.3,1.43.88-2.82-1-5.86.67-8.62C342,323.15,347.05,321.7,351.08,325.37Z"/><path class="cls-35" d="M342.48,376.45c.42,0,.84.05,1.26,0,1.52,2.3,5.32,2.09,5.92,5.4-1.39.67-2.72,2.45-4.26.22-.41-1.62-1.59-1.69-2.92-1.46a6.1,6.1,0,0,0-1.34.19c-1.43-1.17-1.27-2.63-.75-4.15l.07-.12Z"/><path class="cls-1" d="M304.47,191.77c1.89-3.57,6.77-4.32,8-8.51,2.67.13,3.11-1.92,3.73-3.79l3.64-.65c1.3,1.52,2.09,1.17,3-.53,1.1-2.08.36-5.83,3.76-5.85,3.2,0,4.46,3.06,5.46,5.64,1.83,4.74,4.89,5.74,9.27,3.59l1.32,2.9c-.12,2.21-.1,4.31,3.05,4.08l8.28,5.78c1.26,6.55,2.5,7,12.56,4.37,1.65,1.33,3.23,2.81,5.57,2.75l.15.1c-.71,2.5,1.16,4.4,1.56,6.65l1.28,1.75c3.19,6.54,1.14,13.17.3,19.78-2,.06-3.23.87-3.07,3.07-1.31,2.5-3.51,4.08-5.77,5.61-2-2.25-2.51-.66-2.89,1.17-2.37,2.1-4.76.17-7.13,0-1.77-2.27-4.61-2.19-6.95-3.21a2.83,2.83,0,0,0-4.25.09l-3.7.61-2,1-1.51,1.34c-2.86.14-6.36-5.92-8.51.9a1,1,0,0,1-.88.86c-2.21-2-5.25-.45-7.62-1.77l-.8-2.75c1.54.24,4,.74,4-1a5.71,5.71,0,0,0-5.52-5.87c-.18-.95-.35-1.91-.53-2.86s-.63-2-1-3c1.81-.79,2-1.74.28-2.88-.49-3.9-2.52-7-5.15-9.74l-.87-1.58Q308,202,304.48,194.1l.27-.39-.39-.29Zm22.5,22.6L334,216a36,36,0,0,0,2.58,5.67c.82,1.21,1.31,3.46,3.33,3.08,1.8-.35,2-2.34,2.49-3.88,2.58-8.41,1.85-9.38-8.11-10.88-.1-1.58-.13-3.18-1.63-4.21-4.15-3-8.14-.6-11.69,1-2.5,1.13-3.13,4,.05,6A10.14,10.14,0,0,0,327,214.37Zm5.09-17.69c-2.11-2.41-3.75-5.69-7.65-6.09-1.51-.15-3.19.74-2.54,2.3,1.39,3.32,4.44,5,7.84,5.79C330.83,198.94,332,198.45,332.06,196.68Zm38,16.15a6.21,6.21,0,0,0-1-.68c-.08,0-.51.31-.48.38a6.42,6.42,0,0,0,.56,1.07Z"/><path class="cls-18" d="M289,234.07c-.58-1.4-1.16-2.8-1.75-4.2.15-.47.29-.94.44-1.4,1.52-1,1.87-1.93,0-2.93,2.45-5.86,7.49-4.95,12.28-4.71l4.31,3.45v0c0,1.79,1.92,3.13,1.17,5.08l-2.48-.94c-.1-1.07-.1-2.24-1.6-2.28-.17,0-.58.67-.51.93.28,1.1.78,2,2.19,1.25-2.12,4.25-1.1,8.52-.06,12.79-1.11-.44-2.14-.53-2.9.62l-6.45.11c-.83-2.27-2.47-2.79-4.64-2.14C287.72,237.84,291.32,235.94,289,234.07Z"/><path class="cls-13" d="M305.5,229.38c.75-1.95-1.2-3.29-1.17-5.08,4.59.07,4.22,4.13,5.45,6.85.69,1.53.05,4.08,2.8,3.93,2.27-.11,2.91-1.92,3.07-3.89s.15-3.79,2.64-4.13c.18.95.35,1.91.53,2.86.42,2.32-2.23,5.33,1.53,6.91l.8,2.75-1.69,2.81a.58.58,0,0,0-.69-.6C308.36,240.71,306.71,239.16,305.5,229.38Z"/><path class="cls-13" d="M304.33,224.28,300,220.83c.35-1.2.19-3.42,2.16-2.54C304.57,219.35,306.43,221.28,304.33,224.28Z"/><path class="cls-13" d="M317.62,221.19c1.74,1.14,1.53,2.09-.28,2.88C315.2,222.89,316,222,317.62,221.19Z"/><path class="cls-13" d="M287.74,225.54c1.83,1,1.48,2,0,2.93Q285.5,227,287.74,225.54Z"/><path class="cls-13" d="M311.6,209.87l.87,1.58Z"/><path class="cls-13" d="M304.36,193.42l.39.29-.27.39A.82.82,0,0,1,304.36,193.42Z"/><path class="cls-5" d="M288.84,273.6q0-4.52,0-9c-.06-5.58-.73-11.45,8.23-9.6,2.3.48,5-.75,7.44-1.19l1.81.42c-3.57,7.47-8.75,13.72-14.66,19.42h-2.73Z"/><path class="cls-17" d="M305.5,229.38c1.21,9.78,2.86,11.33,13.27,12.41l-3.24,3.07-2.62.2c-3,0-7-6.26-8.65,1.5l-2.62,0c-2.44-2-5.4-.85-8.1-1.3-1.11-.18-2.6-.23-2.07-1.87.21-.68,1.44-1,2.21-1.55l6.46-.11c.24.91.81,1.81,1.72,1.45.58-.23.8-1.35,1.18-2.07-1-4.27-2.06-8.54.06-12.79l-.08.1Z"/><path class="cls-8" d="M312.91,245.06l2.62-.2,2.89,1.46-1.52,1.5c-2.74,1.07-5,2.62-5.48,5.8l-5.14.58-1.81-.42c3.55-4.17-2.27-4.65-2.83-7.2l2.62,0C307.24,246.61,310.41,247.76,312.91,245.06Z"/><path class="cls-20" d="M289,234.07c2.31,1.87-1.29,3.77,0,5.65l-4.37.95C284.93,237.68,285.25,234.75,289,234.07Z"/><path class="cls-6" d="M288.89,273.62h2.73c.81,2.9,4.1,5,2.8,8.56l-5.87-.52Q288.73,277.64,288.89,273.62Z"/><path class="cls-6" d="M319.85,178.81l-3.64.66c-.19-.16-.38-.32-.55-.49.47-1.42,1.56-2.7,1-4.36,1.2-2.81,5.61-6.63-2.09-6.64-.5-2.75,1.73-2.65,3.72-2.68-1.72-3.21-4.61-2.85-6.84-3.81l.12-1.7,2.81-1.08c4.63,1.39,10-.36,14.07,3.43-.54,4.52,6.59,3.53,5.88,8.18l-.39.41c-9.65-3.27-9.65-3.28-13.57,6.05A13.4,13.4,0,0,0,319.85,178.81Z"/><path class="cls-17" d="M298,180.64c0-2.61,0-5.22,3.07-6.36Q302.81,179,298,180.64Z"/><path class="cls-6" d="M316.21,179.47c-.62,1.87-1.06,3.92-3.73,3.79-2.21-2.61,1.23-2.85,1.79-4.3l.69.14.7-.12C315.83,179.15,316,179.31,316.21,179.47Z"/><path class="cls-17" d="M315.66,179l-.7.12-.69-.14c0-1.86.08-3.72,2.38-4.34C317.22,176.28,316.13,177.56,315.66,179Z"/><path class="cls-17" d="M310.13,170.74a2.68,2.68,0,0,1,2.81-1.33C312.73,171.37,312,172.27,310.13,170.74Z"/><path class="cls-5" d="M311.56,159.79l-.12,1.7-2-.69c.14-.26.29-.52.44-.78Z"/><path class="cls-17" d="M351.08,325.37c-4-3.67-9-2.22-13.69-2.62-.58-2.44-2.25-3.27-4.6-3.1-1.2-1.35-2.21-3.16-4.5-1.79-1.78.51-3.47,1.71-5.46.78.47-3.37-2-3.9-4.36-4.48q.63-2.71,1.27-5.41l1.73-.2c1.11,3.18,2,5.95,6.75,4.15a6.75,6.75,0,0,1,7.21,2.56c1.93,2.67,5.93,4.68,9.9,1.94,3.72-2.57,4.95-5.9,3.36-10.24a32.35,32.35,0,0,1-.94-4.06c.1-1.79.21-3.58.31-5.38l1.53-1.3c2.25,6.52,1.52,13.77,4.79,20,1.73,3.32.74,6.16-1,9Z"/><path class="cls-6" d="M328.29,317.86c2.29-1.37,3.3.44,4.5,1.79C329.89,322.6,329.2,320,328.29,317.86Z"/><path class="cls-17" d="M311.48,318.3l1.67-.89Z"/><path class="cls-17" d="M246.9,90.7l3.65.1c.64,1.36,1.29,2.71,1.93,4.06-.65,1.37-1.31,2.75-2,4.12-4,.07-3.88,3-4,5.73-.13,2.59.86,5.6-2.51,7-1.33-.93-3-.86-4.35-1.31-4.43-1.43-12.16,3.8-12.74-5.86,3.59-2.66,7.17.55,10.8.07,1.86-.26,4.29,2.36,5.58-.41a11.08,11.08,0,0,0,.15-8.23c-.81-2.32-3.95-1.21-5.24-3,1.18-1.29,2.71-1.12,4.23-1C244.5,93.78,245.94,93.13,246.9,90.7Z"/><path class="cls-10" d="M401.92,271.87a.88.88,0,0,0-.3-1.12c2.93-2.57-.33-4.19-1.19-5.83a118.88,118.88,0,0,0-12.76-19.72c.12-2.07-1.54-2.94-2.77-4.1.09-1.91-.86-2.85-2.73-2.93l0-.06c-1.24-5.62-3.61-11-2.89-17a33,33,0,0,0-1.87-14.39c.39-2-.13-3.4-2.43-3.59l-2.69-1.49-.15-.1c.07-2.34-2.48-3.09-3.05-5-.09-4.44-2.77-6.57-6.73-7.56l-.38-.21v-.43c.43-3.06-.84-4.76-4-5l-1.48-2.3c.61-2.64-.79-5.59,1.77-8.87,6.79,9.4,16.43,15.83,21.12,26.71,3,7,9.09,12.05,13.16,18.63,10.08,16.28,16.37,33.87,22.36,51.81,2.23,6.69,3.15,13.78,5.91,20.11,1.73,4,.38,5.19-2.13,7l-1.43-.2a3,3,0,0,0-1.35-2.92,2.45,2.45,0,0,0-1.65-2.65,4.36,4.36,0,0,0-2.57-3C408.09,282.55,406.38,276.35,401.92,271.87Z"/><path class="cls-13" d="M269.93,108.63c.52,4.75,1.17,9.5-.93,14.07-4.21,1.8-8.1,1.07-11.73-1.54-3.65-3-3.38-7.58-4.79-11.49,2.69-3.62,7.32.92,10.19-2.41-.85-2.4-4.18-.81-4.95-3.15l7-1.73c.6,1.59,1.61.94,2.59.49Z"/><path class="cls-5" d="M356.49,181l1.48,2.3c-.14,2.84,1.47,4.27,4,5v.43l.37.21c-.07,1-.14,1.89-.22,2.84-4.41-2.28-12.11.43-13-6.88-1.17-9.2-7.14-12.44-14.72-14.59.71-4.65-6.42-3.66-5.88-8.18,9.1.14,14.77,6.5,21,11.74C352,176,352.85,179.89,356.49,181Z"/><path class="cls-6" d="M417.25,296.15l1.43.2c.6,4.74,6.14,7.25,5.61,12.49l-.42.4C420.31,305.56,416.13,302.2,417.25,296.15Z"/><path class="cls-17" d="M267.34,102.87c-1,.45-2,1.1-2.59-.49l-1.24-2.47a9.61,9.61,0,0,1,0-1.2l2.59,0Z"/><path class="cls-5" d="M390.48,283.42c5.41,6.43-1.4,11.85-1.69,17.82,0,.24-3.65.9-5.25.36-4.55-1.53-8.78-4.13-13.68-.6-.89.64-3.1-.56-4.7-.91.51-3.26,3.37-3.39,5.68-4.25a11,11,0,0,0,5.9-4.54c1.85-2.95,2.05-4.84-2-4.89-5-.05-6-3.55-6.88-7.27a11,11,0,0,0,4.62-4.14c4.41-.7,3.82-4.11,3.89-7.17,2-2.16-.19-2.58-1.43-3.36-1.47-.93-3.7-.74-4.31-2.94l1.38-5.94c.94-4.07,2.6-6.13,6.52-2.46a6.46,6.46,0,0,0,5,2c4.21-.5,3.5,2.91,3.94,5,.74,3.53-2.25,1.67-3.59,2s-3,.11-3.57,1.63c-.69,1.68.76,2.61,1.85,3.29,3.41,2.13,4.27,5.32,4,9A7,7,0,0,0,390.48,283.42Z"/><path class="cls-8" d="M390.48,283.42a7,7,0,0,1-4.26-7.28c.24-3.69-.62-6.88-4-9-1.09-.68-2.54-1.61-1.85-3.29.62-1.52,2.24-1.29,3.57-1.63s4.33,1.51,3.59-2c-.44-2.11.27-5.52-3.94-5a6.46,6.46,0,0,1-5-2c-3.92-3.67-5.58-1.61-6.52,2.46l-2.42.19a3.54,3.54,0,0,0-2.92-2c.86-4-4.87-4.57-4.46-8.37a2.9,2.9,0,0,1,2.84-1.47c4.42.82,8.28-4.21,12.9-1.22-.07,4.07,3.24,6.84,5.79,7.8,3.73,1.41-.42-4.87,3.26-5.11a3.46,3.46,0,0,0,.68-.19,119.38,119.38,0,0,1,12.76,19.73c.86,1.64,4.12,3.26,1.19,5.83-2.48-.14-3.59-1.69-4.2-3.9-.46-1.66-1.42-3.13-3.42-2.46-1.79.6-2.75,2.95-1.86,3.92,4.61,4.95,1.75,8.56-1.51,12.4C390.17,281.26,390.51,282.5,390.48,283.42Z"/><path class="cls-5" d="M353.34,325.25c1.78-2.84,2.77-5.68,1-9-3.27-6.26-2.54-13.51-4.79-20L348,294.75c-.11-.91-.21-1.82-.32-2.74.25-.86-.15-1.26-1-1.39l-.05-.06-.3-1.6.58.16c3.9-.22,3.48,4,5.64,5.52,1.61,3.6,4.89,4.86,8.31,5.92,7.51,3.75,6.45,12.84,11.35,18.22-2-.27-4.35.62-5.57-1.9-.62-1.29-2.39-3-2.81-1.82-.78,2.24-4.81,1.81-3.69,5.19a30.34,30.34,0,0,1,.77,5.52C358.23,327.84,355.88,325.06,353.34,325.25Z"/><path class="cls-4" d="M417.25,296.15c-1.12,6.05,3.06,9.41,6.62,13.09-.21,3.19,4.72,6.81,1.8,8.64-4,2.51-4-3.71-6.45-5.52-4.21-3.14-7.18-7.85-12.52-9.65-2.73-.92-4-2.13-.91-4.71,2.9-2.42,2.37-4-1-6.8-3.13-2.57-5.44-6.58-9.74-9a12.83,12.83,0,0,1,6.73-3,13.07,13.07,0,0,0,9.91,8.43,4.36,4.36,0,0,1,2.57,3c-1.67,2.27-.09,2.51,1.65,2.65A3,3,0,0,1,417.25,296.15Z"/><path class="cls-5" d="M414.47,327.18c-1.39,2.34-1.48,4.39,1.32,5.78l2,2.17c-1.44.91-2.8,1.89-3.3,3.64-1.82-.26-2.55-1.64-3.19-3.12-.17-7.08-4.6-9.46-10.86-9.81l-1.44-.27-2.83-1.16-.14-.69a36.47,36.47,0,0,1,.18-5.44c.84-4.76,3-7.6,8.34-5,1.67,3,4.45,2.69,7.2,2.47l2.73,1.52C414.46,320.57,414.47,323.87,414.47,327.18Z"/><path class="cls-36" d="M360.85,300.56c-3.42-1.06-6.7-2.32-8.31-5.92,1.37-.84,2.71-2.37,4.1-2.4,8.34-.22,9.14-5.36,8.19-11.84a3.33,3.33,0,0,1,3-1.26c.92,3.72,1.91,7.22,6.88,7.27,4.06,0,3.86,1.94,2,4.89a11,11,0,0,1-5.9,4.54c-2.31.86-5.17,1-5.68,4.25Z"/><path class="cls-8" d="M360.9,325.77a30.34,30.34,0,0,0-.77-5.52c-1.12-3.38,2.91-2.95,3.69-5.19.42-1.22,2.19.53,2.81,1.82,1.22,2.52,3.59,1.63,5.57,1.9,6.12,4.12,10-3.24,15.38-3l.16.17,0,3.94c-3.57,1.57-5.47,5-8.4,7.34-3.75,0-7.43-3.95-11.33.69C365,331.45,364.31,323.32,360.9,325.77Z"/><path class="cls-8" d="M417.28,361l-2.6-1.18-.41-.43,1.35-5.69,1.44-2.88c5.37.92,6.36-2.86,7.23-6.76,4.37-.35,4.36,2.62,4.28,5.64-.06.45-.12.9-.16,1.34-2,.06-3.94.25-4,2.95h0c-3.29.35-3.75,3-4.33,5.46L420,361Z"/><path class="cls-14" d="M379.31,327.24c2.93-2.31,4.83-5.77,8.4-7.34,3.79-.94,4.55,4.67,8.3,3.82l.14.69-7,2.9c-3.56-.07-6.21,3.36-10,2.61C379.2,329,379.26,328.13,379.31,327.24Z"/><path class="cls-8" d="M414.47,327.18c0-3.31,0-6.61,0-9.92,5.41.26,6.51,6.83,11.7,7.79C422.85,329.93,418.6,328.22,414.47,327.18Z"/><path class="cls-14" d="M424.29,344.08c-.87,3.9-1.86,7.68-7.23,6.77,2-3.82-.35-8,1.11-11.91l4.67-.34a2.32,2.32,0,0,0,1.14,0,9.44,9.44,0,0,1,.24,1.2C424.24,341.25,424.27,342.67,424.29,344.08Z"/><path class="cls-8" d="M411.68,287.58a13.07,13.07,0,0,1-9.91-8.43l.15-7.28C406.38,276.35,408.09,282.55,411.68,287.58Z"/><path class="cls-4" d="M433,330.55a6.91,6.91,0,0,1,.69,6.95c-.71,1.79-.33,5.69-3.74,4.43-2.6-1-1.53-4-.74-6.11C430,334,430.54,331.86,433,330.55Z"/><path class="cls-8" d="M411.73,315.74c-2.75.22-5.53.49-7.2-2.47.83-1.56,3-2.27,2.86-4.44l0,0C412.87,308.61,411.38,312.75,411.73,315.74Z"/><path class="cls-8" d="M422.84,338.6l-4.66.33c-.13-1.26-.27-2.53-.41-3.79l-2-2.18C422,330,421.48,335.49,422.84,338.6Z"/><path class="cls-8" d="M387.58,315.79c.2-.84.26-1.83,1.38-2,.23,0,.77.52.75.75-.14,1.11-1.12,1.17-2,1.37Z"/><path class="cls-8" d="M424.22,339.84a9.44,9.44,0,0,0-.24-1.2C425.09,338.83,425.23,339.22,424.22,339.84Z"/><path class="cls-8" d="M407.39,308.83l-.48-.29.5.27Z"/><path class="cls-11" d="M252.48,109.67c1.41,3.91,1.14,8.52,4.79,11.49.41,2.9,2.52,5.69.62,8.76l-17-.21a9.85,9.85,0,0,0-1.33,0l-.08-.09-.36-3c.15-.87.31-1.75.46-2.62,2.91-3.59,2.8-8.25,4.35-12.33,3.37-1.43,2.38-4.44,2.51-7,.15-2.77.07-5.66,4-5.73.11,1.74.21,3.48.32,5.22A7.42,7.42,0,0,0,252.48,109.67Z"/><path class="cls-17" d="M252.48,109.67a7.42,7.42,0,0,1-1.65-5.47c2.3.32,4.55-3.44,6.89-.08.77,2.33,4.1.74,4.95,3.14C259.8,110.59,255.17,106.05,252.48,109.67Z"/><path class="cls-13" d="M263.52,98.71a9.61,9.61,0,0,0,0,1.2h-9C257.58,96.43,260.1,94.27,263.52,98.71Z"/><path class="cls-13" d="M236.74,126.89c-7.9,3.9-16,6.31-24.75,2.9-.87-.34-2.21.41-3.3.78-1.77.6-2.91,4.08-5.05,2.07-1.8-1.69.79-3.74,1.27-5.67,1-4-1.11-6.81-3.92-9-3.13-2.43-4.68,1.23-6.23,2.63-4.67,4.22-8.9,8.94-5.94,16.11l-.06.06c-3.18,1.91-4.43,0-5.3-2.68-.6-1.87.18-4.13-1.6-5.67-.08-2.38-.2-4.76-1.45-6.89-5.22-1.56-5.81-4.77-3.26-9.11a1.82,1.82,0,0,0,.06-.77c1.07-3.33,2.16-6.67,1.77-10.26,1.87.17,2.58,1.75,3.68,2.92s2.58,3.26,4.65,2.27.88-3.27.89-5c.56-5.6-.21-11.85,6.85-14.36l-.64-1.15c5.49-3.94,11.27-2.58,17.4-.86-1.6,3.07-3.77,1.63-5.85,1.14-1.54-.35-3.45-.8-4,1.41-.47,1.82,1.2,2.13,2.43,2.74,2.25,1.11,4.17,3,7,2.55l0,0c-.71,2.19-.43,4.13,1.43,5.67-5.25,3.46,1.16,4.82,1.31,7.3-1.37,2.07-4.8.15-5.82,3,6.5,5.27,8.78,8.07,8,13.3s1.93,5,5.08,4.33c5.18-1.1,10.28-2.58,15.41-3.9,0,1.4,0,2.8,0,4.2Z"/><path class="cls-6" d="M177.21,111.67a1.82,1.82,0,0,1-.06.77c-1.09.32-2.41.36-3.22,1-1.72,1.41-3.62,3-5.11.46s-2.06-6,0-8.44c1.46-1.76,3-.06,2.92,1.84C171.51,111.52,174.5,111.33,177.21,111.67Z"/><path class="cls-37" d="M177.61,98.67a5.39,5.39,0,0,1,0,1.39,7,7,0,0,1-.49-1C177.09,99,177.43,98.81,177.61,98.67Z"/><path class="cls-37" d="M177.54,100l1.45,1.45Z"/><path class="cls-8" d="M414.68,359.84c-2.9,3.5-5,7.61-9.58,9.65-2.05.93-.29,2.09.89,2.76.42.06.84.09,1.26.12-1.9,2.13-4.53,1-6.78,1.5l-.19-.31c-.44-1.79-.87-3.58-1.31-5.37,1.52-1,1.4-2.66,1.53-4.2l1.07-.31c3.94,1.14,7.51,1.46,9.54-3.3.28-.65,2.06-.66,3.15-1Z"/><path class="cls-6" d="M394.63,380.92l-2.85-1.51-1.43-2.74.17-.2c3.14-1.32,6-3.6,9.76-2.91l.19.31c1.77,2.67,4.09,5.21,1.72,9.07C399.7,382.22,398,377.75,394.63,380.92Z"/><path class="cls-4" d="M380.35,378.32c-3-3.23-7.47-4.86-9.46-9.1,0-2.5,1.33-2.25,3.18-1.73,3.05.87,6.2,1.43,9.31,2.11.74,2.82-2.3,4.13-2.6,6.53Z"/><path class="cls-6" d="M380.78,376.13c.3-2.4,3.34-3.71,2.6-6.53a2.08,2.08,0,0,1,1.28-.49l4.36,2.16,1.5,5.2-.16.2c-1.57-.22-3.09-.28-4.14,1.22Z"/><path class="cls-4" d="M386.22,377.89c1-1.5,2.57-1.44,4.14-1.22.47.92.94,1.83,1.42,2.74A10,10,0,0,1,386.22,377.89Z"/><path class="cls-6" d="M420.05,359.48c.58-2.51,1-5.11,4.33-5.46C423.75,356.48,423.39,359.17,420.05,359.48Z"/><path class="cls-6" d="M424.4,354c.07-2.7,2-2.89,4-2.95C428.4,353.85,426.38,353.91,424.4,354Z"/><path class="cls-6" d="M417.28,361,420,361l.33,1.52h-3C417.27,362,417.28,361.5,417.28,361Z"/><path class="cls-17" d="M384.66,369.11a2.08,2.08,0,0,0-1.28.49c-3.11-.68-6.26-1.24-9.31-2.11-1.85-.52-3.16-.77-3.18,1.73-2-1.64-4.06-3.4-5.77.34a9.57,9.57,0,0,0-7.44,4.36c1.3,1.79,4.61,1.53,4.45,4.56l.09,2.26c-4.18-4.29-10.28-4.42-15.26-7-4.43-8.59.59-13.89,6.57-18.83,2.16-1.79,3.86-.49,5.36,1.09,2.9,3.07,5.9,3.19,9.07.45,1.56.18,3.18.64,4.3-1l5.76,2.15c2.54-5-4.31-7.57-3.19-12.16l4.42-.12a2.67,2.67,0,0,0,2.93,2.88c.08,3.34,2.23,4.75,5.07,5.83,12.14,4.63,18.92,1.63,25.58-11.46,1.6-.82,1.48-2.38,1.64-3.82.5-1.75,1.86-2.73,3.3-3.64.14,1.27.28,2.54.41,3.8-1.47,3.88.88,8.1-1.12,11.92l-1.44,2.87c-3.22-.25-5,2.22-7.24,3.79-1.55,1.07-2.7,3.48-5.4,2-1.49-.82-3.65-2.53-4.84-.08-1.49,3.07,2.61,2.54,3.43,4.27l-1.07.31c-3.69.34-8.06-.87-9.6,4.28l-1.81,1.79c-.7-2.22,1.14-6.1-1.55-6.52C384.07,363,385.2,366.94,384.66,369.11Z"/><path class="cls-38" d="M362.13,378.48c.16-3-3.15-2.77-4.45-4.56a9.57,9.57,0,0,1,7.44-4.36l.51,0c-.14,2.45-1.56,5.1,1.07,7.13l-.65,2.36-1.06.31Z"/><path class="cls-23" d="M366.7,376.67c-2.63-2-1.21-4.68-1.07-7.13,3.35.79,3.21,4.36,4,6.43C370.62,378.45,367.87,376.73,366.7,376.67Z"/><path class="cls-17" d="M365,379.34l1.06-.31,4.65,3.1A5.27,5.27,0,0,1,365,379.34Z"/><path class="cls-8" d="M342.48,380.65c1.33-.23,2.51-.16,2.92,1.46A3.07,3.07,0,0,1,342.48,380.65Z"/><path class="cls-6" d="M214.08,106c-.15-2.48-6.56-3.84-1.31-7.3,5.24-1.06,9.77-5.45,15.68-3.33-1.39,3,.32,3.32,2.77,3.42,4.05.16,4.52-2.08,3.94-5.25l3-.58c1.29,1.84,4.43.73,5.24,3a11.08,11.08,0,0,1-.15,8.23c-1.29,2.77-3.72.15-5.58.41-3.63.48-7.21-2.73-10.81-.07-1.94,2.44-4.93,1-7.26,1.94Z"/><path class="cls-14" d="M194.41,86.07l.64,1.15c-7.06,2.51-6.29,8.76-6.85,14.36-2-4.69-7-8.73-3.16-14.67C188.31,88.23,191.21,85.53,194.41,86.07Z"/><path class="cls-39" d="M206.91,68.54c-.09,2.4-1.32,3.72-3.08,2.74-2.37-1.31-6.54-.67-6.65-4.37,0-1.12,1.16-5.13,4.21-4.38A7.37,7.37,0,0,1,206.91,68.54Z"/><path class="cls-4" d="M235.16,93.53c.58,3.17.11,5.41-3.94,5.25-2.45-.1-4.16-.39-2.77-3.42C230.67,94.7,232.56,92.8,235.16,93.53Z"/><path class="cls-13" d="M246.9,90.7c-1,2.43-2.4,3.08-4.5,1.21C243.52,90.11,245.17,90.24,246.9,90.7Z"/><path class="cls-37" d="M212.79,91.64l.25-.5-.29.46Z"/><path class="cls-37" d="M212.75,91.6,211.34,93l0,0,1.42-1.41Z"/><path class="cls-6" d="M263.2,143.72c-10.37,1.05-20.64,3.22-31.14,2.86-2.39-.08-5.62.81-4.92-3.6l6.65-.9c8.79-.42,17.85,2.87,26.31-2.86,2.42-1.64,2.56,2.21,3.18,4Z"/><path class="cls-6" d="M240.93,129.71l17,.21c.31,4.05-2.72,6.39-5.09,8.69-2.62,2.54-5.92.84-6.9-2.88-.82-3.12-5.13-1.74-6.3-4.58Z"/><path class="cls-13" d="M232.38,162.25c0-3.08.84-5.08,4.55-3.68,3.46,1.31,3.94-1,4.1-3.55l8.37-1.52c1.67,2.29,4.25,3.66-1.42,5.16-5.16,1.37-9.84,4.5-15.57,3.61Z"/><path class="cls-6" d="M249.4,153.5,241,155c-.23-1.37-4.83-3.11,0-4,3.75-.67,7.49-2.7,11.56-1.12C253.39,152.77,250,151.92,249.4,153.5Z"/><path class="cls-13" d="M233.79,142.08l-6.65.9c.25-6,2.37-7.11,10.17-5.33C237.43,140.16,233.71,139.67,233.79,142.08Z"/><path class="cls-6" d="M243.83,166.46c-2.82,1.93-5.45,2.64-7.33-1.2C239,165.23,241.69,164.21,243.83,166.46Z"/><path class="cls-13" d="M254.85,155.75c.86,0,1.4.51,1.2,1.22a3.84,3.84,0,0,1-1.39,2.23c-.84.46-1-.58-1-1.19C253.69,157.09,253.78,156.15,254.85,155.75Z"/><path class="cls-6" d="M239.15,126.69c.13,1,.25,2,.37,3-1.83,0-2.61-1.07-2.78-2.76v0Z"/><path class="cls-37" d="M188.82,136.73l1,1.44-.5.34c-.19-.58-.37-1.15-.56-1.72Z"/><path class="cls-37" d="M240.93,129.71l-1.33,1.44v-1.41A9.85,9.85,0,0,1,240.93,129.71Z"/><path class="cls-11" d="M328.77,241.35a1,1,0,0,0,.88-.86c3.35.12,2.22,4,4.38,5.17,4,2.2,4.64-2.92,7.47-3.47,2-.38,3.92-3,5.72-1.59,2,1.61,1.15,4.29-.16,6.39-1.11,1.79-2.73,3.48-.27,5.42,4.32.1,6.91-4.45,11.29-4.2,2.36,1.31,3.94,3.37,1.79,5.55-1.58,1.59-.39,5.62-4.6,5-2.31-.35-3.53,2.23-3.24,5.68s2.12,2.23,4.23,1.68c8.48-2.22,9.41-1.24,7.77,7.48-1.85,5.25-6.37,5.91-10.66,5.06a66.1,66.1,0,0,0-13-.82l-7.81-.82c-7.27-1.12-13.45,2-19.63,5.06a3.18,3.18,0,0,0-2.84-1.44l0,0a12.17,12.17,0,0,1,.46-10.57,22.35,22.35,0,0,0,2.37-12c4.19,0,8.39.13,12.56-.17,4.78-.34,6.65-5,6.17-7.91-.6-3.71-4.36-1.65-6.63-.28-4,2.38-3.94-1.56-5.39-3.18l2-3.58C323.83,241.78,326.74,243.57,328.77,241.35Z"/><path class="cls-13" d="M332.57,277l7.81.82,2.23,4.14c.39,1.5-1.24,4.65,2.67,3.25l.54,0,.53-.07c.18,1.3.37,2.61.55,3.92l-.58-.16c-.73.69-.59,1.21.3,1.6l.05.05,1,1.4c.11.92.21,1.83.32,2.74-1.37,1-1.08,1.89.11,2.77-.1,1.8-.21,3.59-.31,5.38-1.56.39-3.32.53-3.65,2.62-1.24,8-6.71,5.38-10.35,3.26-4.44-2.58-8.15-2.44-12.28-.23l-1.73.2c-4.73,1.36-6.52,7.75-12.36,7.2-.29-4.56,3.83-8.19,2.23-13.38-.65-2.1,3.58-2.68,5.72-1.93,3.25,1.14,5.55.25,7.28-2.29,3.85-5.64,8.92-6.77,15.09-4.56,1.51.54,3.25,1.41,4.3-.58.89-1.68-.12-2.89-1.21-4.31C337.88,285.07,335.29,281,332.57,277Z"/><path class="cls-17" d="M310.1,280.63a3.18,3.18,0,0,1,2.84,1.44,10.52,10.52,0,0,1-7.77,3.1l-10.75-3c1.3-3.58-2-5.66-2.8-8.56,5.91-5.7,11.09-11.95,14.66-19.42l5.14-.58c0,.55.05,1.1.07,1.65-1.94,2.17-.38,2.54,1.43,2.79l0,0a22.35,22.35,0,0,1-2.37,12,12.17,12.17,0,0,0-.46,10.57l-1.34.26.39.69Z"/><path class="cls-8" d="M342.48,376.45l-2,.12C341.11,376.16,341.74,375.39,342.48,376.45Z"/><path class="cls-40" d="M379.25,345.34l-4.42.12c-.4-.95-.8-1.89-1.21-2.83,3.15-2.43,6.33-4.82,9.43-7.3,2.68-2.15,6.11-3.79,6.05-8l7-2.9,2.83,1.16Z"/><path class="cls-7" d="M389.1,327.31c.06,4.23-3.37,5.87-6.05,8-3.1,2.48-6.28,4.87-9.43,7.3-2.38-3.73-.29-5.83,2.72-7.68,1.75-1.08,4.63-2.34,0-3.54.44-1.41,1.67-1.34,2.79-1.49C382.89,330.67,385.54,327.24,389.1,327.31Z"/><path class="cls-6" d="M334.32,170.32c7.58,2.15,13.55,5.39,14.72,14.59.94,7.31,8.64,4.6,13,6.88a.81.81,0,0,1,.31,1.19c-1.42,8.57-5.28,3-8.43,1.45l-8.28-5.78c-.35-1.86-.58-3.8-3.05-4.08l-1.32-2.9c-.3-3.4-1.07-6.37-5.17-7.09-2.06-.35-1.94-2.29-2.22-3.85Z"/><path class="cls-17" d="M346.79,252.41c-2.46-1.94-.84-3.63.27-5.42,1.31-2.1,2.19-4.78.16-6.39-1.8-1.42-3.75,1.21-5.72,1.59-2.83.55-3.46,5.67-7.47,3.47l4.13-6.07,1.51-1.34,2-1,3.7-.61,4.25-.09c2.34,1,5.18.94,6.95,3.21l.42,4.91C352.58,245.94,347.9,246.84,346.79,252.41Z"/><path class="cls-18" d="M333.93,170.73c.28,1.56.16,3.5,2.22,3.85,4.1.72,4.87,3.69,5.17,7.09-4.38,2.15-7.44,1.15-9.27-3.59-1-2.58-2.26-5.66-5.46-5.64-3.4,0-2.66,3.77-3.76,5.85-.89,1.7-1.68,2.05-3,.53a13.23,13.23,0,0,1,.51-2C324.28,167.45,324.28,167.46,333.93,170.73Z"/><path class="cls-8" d="M377.37,206.73a33,33,0,0,1,1.87,14.39c-.72,6,1.65,11.37,2.89,17-4.24.64-5.84-1.54-5.83-5.44l-.9-2.84c.83-6.61,2.88-13.24-.31-19.78-.43-.58-.86-1.16-1.28-1.75-.4-2.25-2.27-4.15-1.56-6.65l2.69,1.49A3.63,3.63,0,0,0,377.37,206.73Z"/><path class="cls-18" d="M334.33,209.93c9.95,1.51,10.68,2.48,8.1,10.89-.48,1.54-.69,3.53-2.49,3.88-2,.38-2.51-1.87-3.33-3.08A36,36,0,0,1,334,216Z"/><path class="cls-6" d="M376.3,232.67c0,3.9,1.59,6.08,5.83,5.44l0,.06-.06,3c-1,1.48-2.64,1.37-4.16,1.48-4.62-3-8.48,2-12.9,1.22.06-1.36.11-2.72.17-4.08l1.34-1.32c2.26-1.53,4.46-3.11,5.77-5.61Z"/><path class="cls-18" d="M327,214.37a10.14,10.14,0,0,1-5.92-1.65c-3.18-2-2.55-4.86-.05-6,3.55-1.6,7.54-4,11.69-1C330.29,208.28,326.24,209.74,327,214.37Z"/><path class="cls-6" d="M332.06,196.68c-.07,1.77-1.23,2.26-2.35,2-3.4-.8-6.45-2.47-7.84-5.79-.65-1.56,1-2.45,2.54-2.3C328.31,191,330,194.27,332.06,196.68Z"/><path class="cls-4" d="M327,214.37c-.73-4.63,3.32-6.09,5.72-8.64,1.5,1,1.53,2.63,1.64,4.2l-.3,6Z"/><path class="cls-18" d="M354,194.43c3.15,1.5,7,7.12,8.43-1.45a3.9,3.9,0,0,1,3,2.61l1.13,3.21C356.47,201.41,355.23,201,354,194.43Z"/><path class="cls-4" d="M365.21,239.83c-.06,1.36-.11,2.72-.17,4.08a2.9,2.9,0,0,0-2.84,1.47l-3.45-.25-1.8-.5-.42-4.91c2.37.13,4.76,2.06,7.13,0Z"/><path class="cls-4" d="M338.16,239.59,334,245.66c-2.16-1.13-1-5-4.38-5.17C331.8,233.67,335.3,239.73,338.16,239.59Z"/><path class="cls-4" d="M320.35,236.83c-3.76-1.58-1.11-4.59-1.53-6.91a5.71,5.71,0,0,1,5.52,5.87C324.4,237.57,321.89,237.07,320.35,236.83Z"/><path class="cls-8" d="M366.53,198.8l-1.13-3.21,3.65.92c.57,2,3.12,2.7,3.05,5C369.76,201.61,368.18,200.13,366.53,198.8Z"/><path class="cls-4" d="M328.77,241.35c-2,2.22-4.94.43-7.21,1.57l-2.1-.53,1.69-2.81C323.52,240.9,326.56,239.34,328.77,241.35Z"/><path class="cls-18" d="M376.3,232.67l-4,.23c-.16-2.2,1.08-3,3.07-3.07C375.7,230.77,376,231.72,376.3,232.67Z"/><path class="cls-18" d="M342.64,184.57c2.47.28,2.7,2.22,3.05,4.08C342.54,188.88,342.52,186.78,342.64,184.57Z"/><path class="cls-18" d="M365.21,239.83l-1.55-.15c.38-1.83.85-3.42,2.89-1.17Z"/><path class="cls-18" d="M370,212.83l-.88.77a6.42,6.42,0,0,1-.56-1.07c0-.07.4-.42.48-.38A6.21,6.21,0,0,1,370,212.83Z"/><path class="cls-4" d="M349.58,236.51l-4.25.09A2.83,2.83,0,0,1,349.58,236.51Z"/><path class="cls-4" d="M341.63,237.21l-2,1Z"/><path class="cls-18" d="M373.81,208.3c.42.59.85,1.17,1.28,1.75Z"/><path class="cls-14" d="M303,241.13c-.38.72-.6,1.84-1.18,2.07-.91.36-1.48-.54-1.72-1.45C300.9,240.6,301.93,240.69,303,241.13Z"/><path class="cls-17" d="M303.1,228.34c-1.41.79-1.91-.15-2.19-1.25-.07-.26.34-.94.51-.93,1.5,0,1.5,1.21,1.6,2.28Z"/><path class="cls-14" d="M319.46,242.39l2.1.53-2,3.58a2.66,2.66,0,0,1-1.18-.18l-2.89-1.46,3.24-3.07A.58.58,0,0,1,319.46,242.39Z"/><path class="cls-14" d="M312.91,245.06c-2.5,2.7-5.67,1.55-8.65,1.5C305.88,238.8,309.94,245.09,312.91,245.06Z"/><path class="cls-17" d="M318.42,246.32a2.66,2.66,0,0,0,1.18.18c1.45,1.62,1.43,5.56,5.39,3.18,2.27-1.37,6-3.43,6.63.28.48,2.95-1.39,7.57-6.17,7.91-4.17.3-8.37.13-12.56.17l0,0-.06-2.8c4.72-.65,4.1-4.2,4-7.44Z"/><path class="cls-4" d="M316.9,247.82c.06,3.24.68,6.79-4,7.44a7,7,0,0,0-1.37,0c0-.55,0-1.1-.07-1.65C311.93,250.44,314.16,248.89,316.9,247.82Z"/><path class="cls-22" d="M321.47,308.55c4.13-2.21,7.84-2.35,12.28.23,3.64,2.12,9.11,4.7,10.35-3.26.33-2.09,2.09-2.23,3.65-2.62a32.35,32.35,0,0,0,.94,4.06c1.59,4.34.36,7.67-3.36,10.24-4,2.74-8,.73-9.9-1.94a6.75,6.75,0,0,0-7.21-2.56C323.46,314.5,322.58,311.73,321.47,308.55Z"/><path class="cls-22" d="M348.06,297.52c-1.19-.88-1.48-1.79-.11-2.77l1.64,1.47Z"/><path class="cls-13" d="M219.61,106.52c2.33-1,5.32.49,7.26-2,.59,9.66,8.32,4.43,12.75,5.86,1.37.45,3,.38,4.35,1.31-1.55,4.08-1.44,8.74-4.35,12.33-.49-.95-1-1.91-1.46-2.87.45-2.65,2.1-5.5-.86-7.69-1.74-1.29-3.44-.39-5.23.38C222.47,118,220.17,116.58,219.61,106.52Z"/><path class="cls-5" d="M377.94,242.69c1.52-.11,3.12,0,4.15-1.48l2.81-.11c1.23,1.16,2.89,2,2.77,4.1a4.27,4.27,0,0,1-.68.18c-3.68.24.47,6.52-3.26,5.11C381.18,249.53,377.87,246.76,377.94,242.69Z"/><path class="cls-13" d="M369.05,196.51l-3.65-.92a3.9,3.9,0,0,0-3-2.61.81.81,0,0,0-.31-1.19c.08-.95.15-1.89.22-2.84C366.28,189.94,369,192.07,369.05,196.51Z"/><path class="cls-13" d="M361.94,188.31c-2.5-.73-4.11-2.16-4-5C361.1,183.55,362.37,185.25,361.94,188.31Z"/><path class="cls-13" d="M377.37,206.73a3.63,3.63,0,0,1-2.43-3.59C377.24,203.33,377.76,204.72,377.37,206.73Z"/><path class="cls-8" d="M384.9,241.1l-2.81.11c0-1,.05-2,.07-3C384,238.25,385,239.19,384.9,241.1Z"/><path class="cls-6" d="M415.9,293.23c-1.74-.14-3.32-.38-1.65-2.65A2.45,2.45,0,0,1,415.9,293.23Z"/><path class="cls-17" d="M358.75,245.13l3.45.25c-.41,3.8,5.32,4.33,4.46,8.37.1,3.09-3,3.54-4.66,5.28,5.13.27,5.13.27,7.58-3.25l2.42-.19-1.38,5.94-1.46.57c-1.06.4-1.19,1.06-.53,1.92.29,1.27.58,2.55.88,3.82-.12,1.41-.24,2.82-.35,4.24a8.54,8.54,0,0,1-5.13,1.51c1.64-8.72.71-9.7-7.77-7.48-2.11.55-3.92,1.87-4.23-1.68s.93-6,3.24-5.68c4.21.63,3-3.4,4.6-5,2.15-2.18.57-4.24-1.79-5.55C358.31,247.18,358.53,246.16,358.75,245.13Z"/><path class="cls-41" d="M364,273.59a8.54,8.54,0,0,0,5.13-1.51,3.44,3.44,0,0,1,3.31,2.92,11,11,0,0,1-4.62,4.14,3.3,3.3,0,0,0-3,1.26c-3.45.15-6.85,1-10.23,1.25s-6.88-1-8.26,3.55l-.53.07-.54-.06a4.33,4.33,0,0,0-2.67-3.24l-2.23-4.14a66.1,66.1,0,0,1,13,.82C357.66,279.5,362.18,278.84,364,273.59Z"/><path class="cls-14" d="M372.47,275a3.44,3.44,0,0,0-3.31-2.92c.11-1.42.23-2.83.34-4.24h6.86C376.29,270.89,376.88,274.3,372.47,275Z"/><path class="cls-6" d="M376.36,267.83H369.5c-.29-1.27-.58-2.55-.86-3.82.17-.64.35-1.28.52-1.92l1.46-.57c.61,2.2,2.84,2,4.31,2.94C376.17,265.25,378.33,265.67,376.36,267.83Z"/><path class="cls-17" d="M369.58,255.78c-2.45,3.52-2.45,3.52-7.58,3.25,1.71-1.74,4.76-2.19,4.66-5.28A3.54,3.54,0,0,1,369.58,255.78Z"/><path class="cls-15" d="M346.35,285.2c1.38-4.54,4.88-3.24,8.26-3.55s6.78-1.1,10.23-1.25c.94,6.48.14,11.62-8.2,11.84-1.39,0-2.73,1.56-4.1,2.4-2.16-1.55-1.74-5.74-5.64-5.52C346.72,287.81,346.53,286.5,346.35,285.2Z"/><path class="cls-22" d="M347.63,292l-1-1.4C347.48,290.75,347.88,291.15,347.63,292Z"/><path class="cls-22" d="M346.62,290.56c-.89-.39-1-.91-.3-1.6Z"/><path class="cls-22" d="M379.25,345.34,399,325.57l1.44.27c3.16,3.78,5.94,8,10.86,9.81.64,1.48,1.37,2.86,3.19,3.12-.16,1.44,0,3-1.64,3.82-7-5.89-14-11.35-21.5-.59-.32.44-1.28.58-1.95.6-3.81.11-5.64,2.68-7.2,5.62A2.67,2.67,0,0,1,379.25,345.34Z"/><path class="cls-40" d="M411.28,335.65c-4.92-1.83-7.7-6-10.86-9.81C406.68,326.19,411.11,328.57,411.28,335.65Z"/><path class="cls-14" d="M401.57,363.68c-.82-1.73-4.92-1.2-3.43-4.27,1.19-2.45,3.35-.74,4.84.08,2.7,1.5,3.85-.91,5.4-2,2.28-1.57,4-4,7.24-3.79l-1.35,5.69c-1.1.31-2.88.32-3.16,1C409.08,365.14,405.51,364.82,401.57,363.68Z"/><path class="cls-6" d="M238.16,121.2c.49,1,1,1.92,1.46,2.87-.15.87-.31,1.75-.46,2.62l-2.41.18c0-1.4,0-2.8,0-4.2Z"/><path class="cls-11" d="M238.16,121.2l-1.45,1.47c-5.13,1.32-10.23,2.8-15.41,3.9-3.15.66-5.91,1-5.08-4.33s-1.46-8-8-13.3c1-2.8,4.45-.88,5.82-3l5.53.52c.56,10.07,2.86,11.47,12.46,7.38,1.79-.77,3.49-1.67,5.23-.38C240.26,115.7,238.61,118.55,238.16,121.2Z"/><path class="cls-5" d="M389.09,370.06l1.81-1.79,8.07-.08c.44,1.79.87,3.58,1.31,5.37-3.75-.69-6.62,1.59-9.76,2.91l-1.5-5.2A5.43,5.43,0,0,0,389.09,370.06Z"/><path class="cls-14" d="M399,368.19l-8.07.08c1.54-5.15,5.91-3.94,9.6-4.28C400.37,365.53,400.49,367.16,399,368.19Z"/><path class="cls-14" d="M389.09,370.06a5.43,5.43,0,0,1-.07,1.21l-4.36-2.16c.54-2.17-.59-6.11,2.88-5.57C390.23,364,388.39,367.84,389.09,370.06Z"/><path class="cls-42" d="M382.18,348.22c1.56-2.94,3.39-5.51,7.2-5.62.67,0,1.63-.16,1.95-.6,7.49-10.76,14.5-5.3,21.5.59-6.66,13.09-13.44,16.09-25.58,11.46C384.41,353,382.26,351.56,382.18,348.22Z"/><path class="cls-20" d="M358.75,245.13c-.22,1-.44,2.05-.67,3.08-4.38-.25-7,4.3-11.29,4.2,1.11-5.57,5.79-6.47,10.16-7.78Z"/><path class="cls-22" d="M342.61,282a4.33,4.33,0,0,1,2.67,3.24C341.37,286.62,343,283.47,342.61,282Z"/><path class="cls-4" d="M311.49,255.27a7,7,0,0,1,1.37,0l.06,2.8C311.11,257.81,309.55,257.44,311.49,255.27Z"/><path class="cls-38" d="M310.1,280.63l-1,.91-.39-.69,1.34-.26Z"/><path class="cls-5" d="M369.16,262.1c-.17.64-.35,1.28-.52,1.92C368,263.16,368.1,262.5,369.16,262.1Z"/><path class="cls-13" d="M238.52,99.63a6.87,6.87,0,0,0,0,1.2c-2.08,0-4.29-1-6.5-1-2.59,0-5.22,1-8.36,1C228.78,97.35,232.91,95.19,238.52,99.63Z"/><rect class="cls-43" x="7" y="7" width="523.1" height="390.67"/></g></g></svg>